<?xml version="1.0" encoding="UTF-8"?>
<svg version="1.1" xmlns="http://www.w3.org/2000/svg" width="1024" height="1024">
<path d="M0 0 C337.92 0 675.84 0 1024 0 C1024 337.92 1024 675.84 1024 1024 C686.08 1024 348.16 1024 0 1024 C0 686.08 0 348.16 0 0 Z " fill="#FDFDFD" transform="translate(0,0)"/>
<path d="M0 0 C2.47906343 2.19531521 4.88606765 4.44825524 7.28125 6.734375 C8.18423828 7.52521484 8.18423828 7.52521484 9.10546875 8.33203125 C29.30014193 26.73789888 39.14347458 58.65799243 40.45054626 85.16804504 C40.59534319 89.04008189 40.72199781 92.91220732 40.83984375 96.78515625 C40.88345135 98.14214011 40.92735372 99.49911453 40.97155762 100.8560791 C41.07767881 104.14876355 41.18083004 107.44151257 41.28125 110.734375 C51.32257429 111.22084884 61.36428516 111.6988411 71.40625 112.171875 C72.14588989 112.20679802 72.88552979 112.24172104 73.64758301 112.27770233 C93.75277598 113.22594279 113.85074549 114.09090622 133.97705078 114.44311523 C134.69015411 114.45699783 135.40325745 114.47088043 136.13796997 114.48518372 C137.99554242 114.5203915 139.85323963 114.54884572 141.7109375 114.57666016 C144.28125 114.734375 144.28125 114.734375 145.28125 115.734375 C145.50281266 118.27888364 145.66223243 120.80155606 145.78125 123.3515625 C145.82140228 124.14097733 145.86155457 124.93039215 145.90292358 125.74372864 C146.03425856 128.36538175 146.15797681 130.98733127 146.28125 133.609375 C146.3718855 135.46199652 146.46254333 137.31461695 146.55322266 139.16723633 C147.06844686 149.91891257 147.4276417 160.66027537 147.65625 171.421875 C148.09114257 191.69467937 149.44104995 211.93309568 150.68813038 232.16886902 C150.90910221 235.75956861 151.12737459 239.35042686 151.34375 242.94140625 C151.38613359 243.6443343 151.42851719 244.34726234 151.47218513 245.07149124 C152.15743048 256.54892532 152.63060972 268.02301509 152.94519043 279.51667786 C153.17865318 287.83452997 153.64415763 296.12085973 154.21875 304.421875 C154.31662095 305.87336341 154.41438752 307.32485887 154.51196289 308.77636719 C154.5918042 309.95360352 154.67164551 311.13083984 154.75390625 312.34375 C155.3999457 322.13178076 155.83326867 331.92832231 156.27020264 341.72750854 C156.88765947 355.55129054 157.5589419 369.37174143 158.26171875 383.19140625 C158.35079192 384.94750352 158.43984206 386.70360196 158.52886963 388.45970154 C159.06656147 399.05958585 159.06656147 399.05958585 159.61053467 409.65914917 C159.86954758 414.67887128 160.12579486 419.69872679 160.37890625 424.71875 C160.41977104 425.52886095 160.46063583 426.3389719 160.50273895 427.17363167 C161.12634019 439.63472348 161.60995143 452.09534065 161.9365387 464.56781006 C162.12197283 471.29062641 162.49055678 477.96505544 163.04063416 484.66781616 C163.39872847 489.23159407 163.6152995 493.79811035 163.81640625 498.37109375 C163.85983658 499.32663651 163.90326691 500.28217926 163.94801331 501.26667786 C164.36342851 510.55289249 164.72225708 519.84125875 165.06591797 529.13037109 C165.21874376 533.22404853 165.40059581 537.31517365 165.60221863 541.4066925 C165.73738283 544.34823097 165.81979195 547.2910613 165.90625 550.234375 C165.99531616 551.73230591 165.99531616 551.73230591 166.08618164 553.26049805 C166.15160728 557.12609126 166.12853609 559.65623528 163.68896484 562.76049805 C161.6434154 564.60139427 159.54949063 566.17849971 157.28125 567.734375 C156.70552246 568.16766113 156.12979492 568.60094727 155.53662109 569.04736328 C153.93582838 570.24929546 152.29581559 571.39839648 150.65625 572.546875 C149.42961965 573.41136206 148.20305906 574.27594813 146.9765625 575.140625 C146.36071289 575.57246094 145.74486328 576.00429688 145.11035156 576.44921875 C142.23957024 578.46627599 139.38536565 580.50633687 136.53125 582.546875 C135.96237061 582.95284912 135.39349121 583.35882324 134.80737305 583.77709961 C130.77821416 586.65507025 126.76350161 589.55258875 122.75268555 592.45605469 C107.48951499 603.50492599 107.48951499 603.50492599 100.60400391 608.25610352 C96.96897734 610.77372712 93.47393656 613.36298119 90.0703125 616.1875 C89.00792358 617.03042603 89.00792358 617.03042603 87.92407227 617.89038086 C86.59965372 618.94497303 85.30165609 620.03429657 84.04272461 621.16625977 C77.4184525 626.31293519 69.94541398 624.76705276 62.1257019 623.99557495 C57.88487773 623.60614911 53.63746986 623.35414798 49.38728333 623.08987427 C43.18370549 622.70342995 36.98268766 622.27855621 30.78125 621.859375 C29.47111938 621.77100372 28.16098877 621.68263245 26.81115723 621.59158325 C10.57129804 620.49335233 -5.6510813 619.31373132 -21.85864258 617.8112793 C-34.08432324 616.67808453 -46.32160609 615.73755922 -58.56542969 614.82397461 C-60.08920839 614.70968153 -61.61297138 614.59517885 -63.13671875 614.48046875 C-63.90992462 614.42238037 -64.68313049 614.36429199 -65.47976685 614.30444336 C-69.55340767 613.99342975 -73.623426 613.65826033 -77.69189453 613.28540039 C-89.61841913 612.1939756 -101.54887481 611.31608974 -113.5 610.55078125 C-114.29367289 610.49983747 -115.08734577 610.4488937 -115.90506935 610.39640617 C-123.32729301 609.9207409 -130.74988423 609.4509731 -138.17285156 608.98706055 C-156.30081788 607.85195764 -174.38451939 606.57535452 -192.45713806 604.75003052 C-201.39581098 603.84750783 -210.30965839 603.14249963 -219.28125 602.671875 C-227.97424109 602.20110176 -236.62636097 601.584317 -245.29296875 600.76953125 C-255.56170212 599.80625344 -265.83542678 599.07089786 -276.12792969 598.41546631 C-281.01799964 598.10374326 -285.9074309 597.78230631 -290.796875 597.4609375 C-291.74864624 597.39850861 -292.70041748 597.33607971 -293.68103027 597.27175903 C-304.10519845 596.58393836 -314.52031782 595.79241508 -324.93359375 594.95605469 C-330.1944169 594.53732858 -335.45667233 594.13697832 -340.71875 593.734375 C-340.03708461 579.05037257 -339.12651524 564.3918429 -338.09643555 549.72851562 C-337.07986183 535.19757056 -336.27292335 520.66012389 -335.52062988 506.11364746 C-334.88568549 493.84243914 -334.22022309 481.57319785 -333.53515625 469.3046875 C-333.48469965 468.40002684 -333.43424305 467.49536617 -333.38225746 466.56329155 C-333.1228896 461.91348071 -332.86311434 457.26369279 -332.60302734 452.61392212 C-332.04749261 442.68150941 -331.49398368 432.7489839 -330.94140625 422.81640625 C-330.88702518 421.83900923 -330.83264412 420.86161221 -330.77661514 419.85459709 C-329.89984524 404.08659473 -329.04985467 388.31735388 -328.21875 372.546875 C-326.80026611 345.64322521 -325.24063017 318.74769011 -323.6763134 291.85218906 C-323.41770531 287.40409933 -323.1599845 282.95595835 -322.90234375 278.5078125 C-322.85214962 277.64317823 -322.80195549 276.77854397 -322.75024033 275.88770866 C-322.19121803 266.2432372 -321.65235638 256.59814861 -321.15673828 246.95019531 C-321.11173345 246.07715822 -321.06672861 245.20412113 -321.02035999 244.30462837 C-320.80741388 240.16318569 -320.59775355 236.02161864 -320.3936615 231.87973022 C-320.07651411 225.5655448 -319.72773816 219.28890644 -318.95185852 213.01132202 C-318.39633039 207.58505907 -318.26608519 202.11957476 -318.03515625 196.671875 C-317.97455009 195.31296885 -317.9135008 193.9540824 -317.85203552 192.59521484 C-317.59396777 186.87673291 -317.3421209 181.15799209 -317.09643555 175.43896484 C-315.76790523 144.62730747 -315.76790523 144.62730747 -313.71875 130.734375 C-303.09288251 128.30666878 -292.41812741 126.47045435 -281.6640625 124.71484375 C-275.25291589 123.66684812 -268.8619501 122.52066507 -262.47265625 121.34765625 C-258.24354402 120.65673989 -253.97771931 120.20759381 -249.71875 119.734375 C-249.38875 112.144375 -249.05875 104.554375 -248.71875 96.734375 C-236.83875 97.064375 -224.95875 97.394375 -212.71875 97.734375 C-212.05875 92.124375 -211.39875 86.514375 -210.71875 80.734375 C-205.09012351 53.84204845 -191.17685695 26.38137869 -167.71875 10.734375 C-157.9692934 4.73003051 -148.11359501 -0.39075434 -136.71875 -2.265625 C-135.95062988 -2.43618408 -135.18250977 -2.60674316 -134.39111328 -2.7824707 C-131.70401864 -3.26828838 -129.24362887 -3.39494134 -126.515625 -3.3984375 C-125.53464844 -3.39972656 -124.55367187 -3.40101563 -123.54296875 -3.40234375 C-122.02123047 -3.39654297 -122.02123047 -3.39654297 -120.46875 -3.390625 C-118.97021484 -3.39642578 -118.97021484 -3.39642578 -117.44140625 -3.40234375 C-112.8045604 -3.39628251 -108.3381596 -3.26679252 -103.74609375 -2.6015625 C-101.01071693 -2.26232424 -99.96100511 -2.16599106 -97.36328125 -3.234375 C-96.75871094 -3.7396875 -96.15414062 -4.245 -95.53125 -4.765625 C-91.73833843 -7.61864108 -87.83487041 -9.90263522 -83.59375 -12.015625 C-82.45679688 -12.58796875 -81.31984375 -13.1603125 -80.1484375 -13.75 C-53.91448333 -25.34313692 -21.33956843 -17.78297369 0 0 Z " fill="#A1A5A6" transform="translate(600.71875,205.265625)"/>
<path d="M0 0 C2.47906343 2.19531521 4.88606765 4.44825524 7.28125 6.734375 C8.18423828 7.52521484 8.18423828 7.52521484 9.10546875 8.33203125 C29.30014193 26.73789888 39.14347458 58.65799243 40.45054626 85.16804504 C40.59534319 89.04008189 40.72199781 92.91220732 40.83984375 96.78515625 C40.88345135 98.14214011 40.92735372 99.49911453 40.97155762 100.8560791 C41.07767881 104.14876355 41.18083004 107.44151257 41.28125 110.734375 C51.32257429 111.22084884 61.36428516 111.6988411 71.40625 112.171875 C72.14588989 112.20679802 72.88552979 112.24172104 73.64758301 112.27770233 C93.75277598 113.22594279 113.85074549 114.09090622 133.97705078 114.44311523 C134.69015411 114.45699783 135.40325745 114.47088043 136.13796997 114.48518372 C137.99554242 114.5203915 139.85323963 114.54884572 141.7109375 114.57666016 C144.28125 114.734375 144.28125 114.734375 145.28125 115.734375 C145.50281266 118.27888364 145.66223243 120.80155606 145.78125 123.3515625 C145.82140228 124.14097733 145.86155457 124.93039215 145.90292358 125.74372864 C146.03425856 128.36538175 146.15797681 130.98733127 146.28125 133.609375 C146.3718855 135.46199652 146.46254333 137.31461695 146.55322266 139.16723633 C147.06844686 149.91891257 147.4276417 160.66027537 147.65625 171.421875 C148.09114257 191.69467937 149.44104995 211.93309568 150.68813038 232.16886902 C150.90910221 235.75956861 151.12737459 239.35042686 151.34375 242.94140625 C151.38613359 243.6443343 151.42851719 244.34726234 151.47218513 245.07149124 C152.15743048 256.54892532 152.63060972 268.02301509 152.94519043 279.51667786 C153.17865318 287.83452997 153.64415763 296.12085973 154.21875 304.421875 C154.31662095 305.87336341 154.41438752 307.32485887 154.51196289 308.77636719 C154.5918042 309.95360352 154.67164551 311.13083984 154.75390625 312.34375 C155.3999457 322.13178076 155.83326867 331.92832231 156.27020264 341.72750854 C156.88765947 355.55129054 157.5589419 369.37174143 158.26171875 383.19140625 C158.35079192 384.94750352 158.43984206 386.70360196 158.52886963 388.45970154 C159.06656147 399.05958585 159.06656147 399.05958585 159.61053467 409.65914917 C159.86954758 414.67887128 160.12579486 419.69872679 160.37890625 424.71875 C160.41977104 425.52886095 160.46063583 426.3389719 160.50273895 427.17363167 C161.12634019 439.63472348 161.60995143 452.09534065 161.9365387 464.56781006 C162.12197283 471.29062641 162.49055678 477.96505544 163.04063416 484.66781616 C163.39872847 489.23159407 163.6152995 493.79811035 163.81640625 498.37109375 C163.85983658 499.32663651 163.90326691 500.28217926 163.94801331 501.26667786 C164.36342851 510.55289249 164.72225708 519.84125875 165.06591797 529.13037109 C165.21874376 533.22404853 165.40059581 537.31517365 165.60221863 541.4066925 C165.73738283 544.34823097 165.81979195 547.2910613 165.90625 550.234375 C165.99531616 551.73230591 165.99531616 551.73230591 166.08618164 553.26049805 C166.15160728 557.12609126 166.12853609 559.65623528 163.68896484 562.76049805 C161.6434154 564.60139427 159.54949063 566.17849971 157.28125 567.734375 C156.70552246 568.16766113 156.12979492 568.60094727 155.53662109 569.04736328 C153.93582838 570.24929546 152.29581559 571.39839648 150.65625 572.546875 C149.42961965 573.41136206 148.20305906 574.27594813 146.9765625 575.140625 C146.36071289 575.57246094 145.74486328 576.00429688 145.11035156 576.44921875 C142.23957024 578.46627599 139.38536565 580.50633687 136.53125 582.546875 C135.96237061 582.95284912 135.39349121 583.35882324 134.80737305 583.77709961 C130.77812161 586.65513635 126.76329249 589.55268704 122.75244141 592.45629883 C113.31301324 599.28913698 103.82758775 606.05171947 94.28125 612.734375 C93.53407715 613.2593457 92.7869043 613.78431641 92.01708984 614.32519531 C89.7962649 615.8835192 87.57080225 617.43496781 85.34375 618.984375 C84.66296387 619.46277832 83.98217773 619.94118164 83.28076172 620.43408203 C78.51095054 623.734375 78.51095054 623.734375 76.28125 623.734375 C76.54001015 610.90077833 76.81194481 598.06748596 77.09375 585.234375 C77.11508373 584.26217136 77.13641747 583.28996773 77.15839767 582.28830338 C77.80479234 552.98816709 78.68090936 523.70596616 79.84375 494.421875 C80.73703037 471.92480907 81.52946503 449.44399087 81.89190674 426.93057251 C82.14875476 411.12071181 82.68131568 395.33687741 83.34838867 379.53927612 C84.30724071 356.71054725 84.93212928 333.87516798 85.52468872 311.03454781 C85.60250016 308.04417311 85.68163995 305.0538341 85.76082993 302.06349564 C85.81352994 300.0475294 85.86387934 298.03150211 85.91409302 296.01547241 C86.1172725 288.28971737 86.41271144 280.57278913 86.76318359 272.85229492 C87.33677679 260.12009565 87.69537983 247.38479254 88.03515625 234.64453125 C88.1008256 232.23359238 88.16666032 229.82265801 88.23265076 227.41172791 C88.40360522 221.15013919 88.57235523 214.88849307 88.74060059 208.62683105 C88.91359124 202.2036575 89.08872965 195.78054252 89.26367188 189.35742188 C89.6049326 176.81646176 89.94385779 164.27543975 90.28125 151.734375 C89.04695755 151.74117279 87.8126651 151.74797058 86.54096985 151.75497437 C77.48912834 151.79002286 68.48592396 151.73368774 59.44921875 151.1484375 C58.42308472 151.08718185 57.39695068 151.02592621 56.33972168 150.96281433 C54.16542168 150.83282456 51.9912569 150.70055416 49.81723022 150.56607056 C44.03518372 150.20915541 38.25202442 149.87150559 32.46875 149.53515625 C31.29503342 149.46675034 30.12131683 149.39834442 28.91203308 149.3278656 C16.60254084 148.62066512 4.28745069 148.06545112 -8.03125 147.546875 C-9.03926666 147.50435608 -10.04728333 147.46183716 -11.08584595 147.41802979 C-16.62995138 147.18518819 -22.17423892 146.95734032 -27.71875 146.734375 C-27.67462077 152.64312708 -27.60481197 158.55080818 -27.51123047 164.45898438 C-27.48301193 166.46866327 -27.46180179 168.47845334 -27.44775391 170.48828125 C-27.42633665 173.37818349 -27.37969297 176.2667479 -27.328125 179.15625 C-27.32628204 180.50333038 -27.32628204 180.50333038 -27.32440186 181.87762451 C-27.27632109 186.94863267 -27.27632109 186.94863267 -24.71386719 191.18286133 C-23.72628418 191.9508606 -23.72628418 191.9508606 -22.71875 192.734375 C-21.65573495 197.5413916 -22.02880945 201.6074721 -24.59375 205.796875 C-27.84050325 208.75715003 -30.19958952 209.13004131 -34.61328125 209.08984375 C-38.37444115 208.45484273 -40.12166048 206.45815181 -42.71875 203.734375 C-43.92065901 200.12864796 -44.04545315 197.5241315 -43.71875 193.734375 C-43.06454575 193.01493713 -42.41034149 192.29549927 -41.73631287 191.55426025 C-38.95628122 187.66869596 -39.12342867 184.65869848 -39.12524414 179.99121094 C-39.11008759 179.12045929 -39.09493103 178.24970764 -39.07931519 177.35256958 C-39.03455269 174.47451051 -39.01848132 171.59710861 -39.00390625 168.71875 C-38.98127978 166.70394456 -38.95736914 164.68915317 -38.93223572 162.67437744 C-38.88387304 158.44438523 -38.84939066 154.21457137 -38.82495117 149.984375 C-38.79304799 144.60828544 -38.72985648 139.23314089 -38.65625858 133.8574791 C-38.60231897 129.68951428 -38.56413577 125.52151426 -38.53054619 121.35334015 C-38.51303021 119.37450999 -38.49114007 117.39571285 -38.46449471 115.41698456 C-38.06786319 83.72546431 -46.22379893 53.0827272 -68.40625 29.484375 C-75.9532603 22.2557542 -87.45764928 13.12336254 -98.21875 12.546875 C-108.07032305 15.889373 -114.07581523 29.2427646 -118.4465332 37.99243164 C-128.29869175 58.49296399 -130.02295359 79.26747499 -130.71875 101.734375 C-134.01875 101.734375 -137.31875 101.734375 -140.71875 101.734375 C-141.67756212 66.31733024 -135.64260072 36.59061164 -112.71875 8.734375 C-136.03992306 7.69567673 -153.8755851 12.65993878 -171.546875 28.6015625 C-190.20515375 46.40760562 -201.26286367 75.33733382 -202.1014328 100.83011723 C-202.18870933 105.22407966 -202.21563288 109.61699964 -202.23046875 114.01171875 C-202.24735582 115.91843286 -202.26551131 117.82513612 -202.28486633 119.73182678 C-202.33193571 124.69807539 -202.36202153 129.66427998 -202.38830566 134.63067627 C-202.41833106 139.7193674 -202.46478459 144.80790736 -202.50976562 149.89648438 C-202.59530741 159.84236812 -202.6628685 169.78828341 -202.71875 179.734375 C-201.72875 180.064375 -200.73875 180.394375 -199.71875 180.734375 C-197.2509184 184.43612239 -197.03802268 187.43930975 -197.71875 191.734375 C-200.71875 197.234375 -200.71875 197.234375 -203.71875 198.734375 C-212.11491646 199.90835226 -212.11491646 199.90835226 -215.453125 197.46484375 C-217.92077162 194.48189445 -219.59589979 191.81545687 -220.03125 187.984375 C-219.64113941 183.92722483 -218.25905163 181.87239466 -215.71875 178.734375 C-215.05875 178.734375 -214.39875 178.734375 -213.71875 178.734375 C-213.72541183 177.83109467 -213.73207367 176.92781433 -213.73893738 175.99716187 C-213.79967223 167.38038348 -213.84503562 158.76367951 -213.87418652 150.14673424 C-213.88967824 145.7193101 -213.91060444 141.29206642 -213.94506836 136.86474609 C-214.26755572 94.30188238 -210.87741393 52.86842194 -179.71875 20.734375 C-168.20842932 9.30734174 -152.82523453 0.38448348 -136.71875 -2.265625 C-135.95062988 -2.43618408 -135.18250977 -2.60674316 -134.39111328 -2.7824707 C-131.70401864 -3.26828838 -129.24362887 -3.39494134 -126.515625 -3.3984375 C-125.53464844 -3.39972656 -124.55367188 -3.40101563 -123.54296875 -3.40234375 C-122.02123047 -3.39654297 -122.02123047 -3.39654297 -120.46875 -3.390625 C-118.97021484 -3.39642578 -118.97021484 -3.39642578 -117.44140625 -3.40234375 C-112.8045604 -3.39628251 -108.3381596 -3.26679252 -103.74609375 -2.6015625 C-101.01071693 -2.26232424 -99.96100511 -2.16599106 -97.36328125 -3.234375 C-96.45642578 -3.99234375 -96.45642578 -3.99234375 -95.53125 -4.765625 C-91.73833843 -7.61864108 -87.83487041 -9.90263522 -83.59375 -12.015625 C-82.45679688 -12.58796875 -81.31984375 -13.1603125 -80.1484375 -13.75 C-53.91448333 -25.34313692 -21.33956843 -17.78297369 0 0 Z " fill="#838989" transform="translate(600.71875,205.265625)"/>
<path d="M0 0 C2.47906343 2.19531521 4.88606765 4.44825524 7.28125 6.734375 C8.18423828 7.52521484 8.18423828 7.52521484 9.10546875 8.33203125 C29.30014193 26.73789888 39.14347458 58.65799243 40.45054626 85.16804504 C40.59534319 89.04008189 40.72199781 92.91220732 40.83984375 96.78515625 C40.88345135 98.14214011 40.92735372 99.49911453 40.97155762 100.8560791 C41.07767881 104.14876355 41.18083004 107.44151257 41.28125 110.734375 C42.32535538 110.78226669 43.36946075 110.83015839 44.44520569 110.87950134 C54.34457529 111.33377547 64.24386807 111.7896929 74.14309025 112.24716854 C79.23085469 112.48223933 84.31864336 112.71675587 89.40649414 112.94995117 C94.3278721 113.17553775 99.24917753 113.40265147 104.17043877 113.63076973 C106.0364176 113.71700615 107.90242081 113.80271679 109.76844978 113.88786125 C120.61617768 114.38322057 131.44976685 114.95605982 142.28125 115.734375 C142.28125 116.064375 142.28125 116.394375 142.28125 116.734375 C139.55248692 117.07133362 136.82331837 117.40405929 134.09375 117.734375 C132.94036133 117.87746094 132.94036133 117.87746094 131.76367188 118.0234375 C125.75364189 118.74567286 125.75364189 118.74567286 122.66796875 118.671875 C119.34389034 118.75892124 116.47040564 119.79849804 113.28125 120.734375 C109.92022414 121.45849846 106.54066123 122.06767649 103.15625 122.671875 C102.19340088 122.84517334 101.23055176 123.01847168 100.23852539 123.19702148 C88.31796001 125.30648598 76.3331321 126.94068761 64.33203125 128.515625 C63.36144775 128.64638428 62.39086426 128.77714355 61.39086914 128.91186523 C59.51740844 129.16410185 57.64289891 129.40869377 55.76733398 129.64477539 C54.93145752 129.75813232 54.09558105 129.87148926 53.234375 129.98828125 C52.49348633 130.08439697 51.75259766 130.1805127 50.98925781 130.27954102 C50.42561523 130.42963623 49.86197266 130.57973145 49.28125 130.734375 C48.95125 131.394375 48.62125 132.054375 48.28125 132.734375 C49.4775 133.085 50.67375 133.435625 51.90625 133.796875 C58.06510401 135.84660349 63.73661343 138.85090482 69.48828125 141.8203125 C73.31004037 143.76866029 77.18685502 145.60960067 81.05078125 147.47265625 C83.28125 148.734375 83.28125 148.734375 84.28125 150.734375 C64.55321296 150.94337177 44.95195892 150.42959817 25.25134277 149.40197754 C21.84035059 149.22559989 18.42894937 149.05752952 15.01757812 148.88867188 C8.59412703 148.56954285 2.17112155 148.24211283 -4.25177002 147.91192627 C-9.38507154 147.6490392 -14.51868249 147.39246928 -19.65234375 147.13671875 C-20.9051992 147.07418663 -20.9051992 147.07418663 -22.18336487 147.01039124 C-24.02848907 146.91830222 -25.87361877 146.82632324 -27.71875 146.734375 C-27.67462077 152.64312708 -27.60481197 158.55080818 -27.51123047 164.45898438 C-27.48301193 166.46866327 -27.46180179 168.47845334 -27.44775391 170.48828125 C-27.42633665 173.37818349 -27.37969297 176.2667479 -27.328125 179.15625 C-27.32628204 180.50333038 -27.32628204 180.50333038 -27.32440186 181.87762451 C-27.27632109 186.94863267 -27.27632109 186.94863267 -24.71386719 191.18286133 C-23.72628418 191.9508606 -23.72628418 191.9508606 -22.71875 192.734375 C-21.65573495 197.5413916 -22.02880945 201.6074721 -24.59375 205.796875 C-27.84050325 208.75715003 -30.19958952 209.13004131 -34.61328125 209.08984375 C-38.37444115 208.45484273 -40.12166048 206.45815181 -42.71875 203.734375 C-43.92065901 200.12864796 -44.04545315 197.5241315 -43.71875 193.734375 C-43.06454575 193.01493713 -42.41034149 192.29549927 -41.73631287 191.55426025 C-38.95628122 187.66869596 -39.12342867 184.65869848 -39.12524414 179.99121094 C-39.11008759 179.12045929 -39.09493103 178.24970764 -39.07931519 177.35256958 C-39.03455269 174.47451051 -39.01848132 171.59710861 -39.00390625 168.71875 C-38.98127978 166.70394456 -38.95736914 164.68915317 -38.93223572 162.67437744 C-38.88387304 158.44438523 -38.84939066 154.21457137 -38.82495117 149.984375 C-38.79304799 144.60828544 -38.72985648 139.23314089 -38.65625858 133.8574791 C-38.60231897 129.68951428 -38.56413577 125.52151426 -38.53054619 121.35334015 C-38.51303021 119.37450999 -38.49114007 117.39571285 -38.46449471 115.41698456 C-38.06786319 83.72546431 -46.22379893 53.0827272 -68.40625 29.484375 C-75.9532603 22.2557542 -87.45764928 13.12336254 -98.21875 12.546875 C-108.07032305 15.889373 -114.07581523 29.2427646 -118.4465332 37.99243164 C-128.29869175 58.49296399 -130.02295359 79.26747499 -130.71875 101.734375 C-134.01875 101.734375 -137.31875 101.734375 -140.71875 101.734375 C-141.67756212 66.31733024 -135.64260072 36.59061164 -112.71875 8.734375 C-136.03992306 7.69567673 -153.8755851 12.65993878 -171.546875 28.6015625 C-190.20515375 46.40760562 -201.26286367 75.33733382 -202.1014328 100.83011723 C-202.18870933 105.22407966 -202.21563288 109.61699964 -202.23046875 114.01171875 C-202.24735582 115.91843286 -202.26551131 117.82513612 -202.28486633 119.73182678 C-202.33193571 124.69807539 -202.36202153 129.66427998 -202.38830566 134.63067627 C-202.41833106 139.7193674 -202.46478459 144.80790736 -202.50976562 149.89648438 C-202.59530741 159.84236812 -202.6628685 169.78828341 -202.71875 179.734375 C-201.72875 180.064375 -200.73875 180.394375 -199.71875 180.734375 C-197.2509184 184.43612239 -197.03802268 187.43930975 -197.71875 191.734375 C-200.71875 197.234375 -200.71875 197.234375 -203.71875 198.734375 C-212.11491646 199.90835226 -212.11491646 199.90835226 -215.453125 197.46484375 C-217.92077162 194.48189445 -219.59589979 191.81545687 -220.03125 187.984375 C-219.64113941 183.92722483 -218.25905163 181.87239466 -215.71875 178.734375 C-215.05875 178.734375 -214.39875 178.734375 -213.71875 178.734375 C-213.72541183 177.83109467 -213.73207367 176.92781433 -213.73893738 175.99716187 C-213.79967223 167.38038348 -213.84503562 158.76367951 -213.87418652 150.14673424 C-213.88967824 145.7193101 -213.91060444 141.29206642 -213.94506836 136.86474609 C-214.26755572 94.30188238 -210.87741393 52.86842194 -179.71875 20.734375 C-168.20842932 9.30734174 -152.82523453 0.38448348 -136.71875 -2.265625 C-135.95062988 -2.43618408 -135.18250977 -2.60674316 -134.39111328 -2.7824707 C-131.70401864 -3.26828838 -129.24362887 -3.39494134 -126.515625 -3.3984375 C-125.53464844 -3.39972656 -124.55367188 -3.40101563 -123.54296875 -3.40234375 C-122.02123047 -3.39654297 -122.02123047 -3.39654297 -120.46875 -3.390625 C-118.97021484 -3.39642578 -118.97021484 -3.39642578 -117.44140625 -3.40234375 C-112.8045604 -3.39628251 -108.3381596 -3.26679252 -103.74609375 -2.6015625 C-101.01071693 -2.26232424 -99.96100511 -2.16599106 -97.36328125 -3.234375 C-96.45642578 -3.99234375 -96.45642578 -3.99234375 -95.53125 -4.765625 C-91.73833843 -7.61864108 -87.83487041 -9.90263522 -83.59375 -12.015625 C-82.45679688 -12.58796875 -81.31984375 -13.1603125 -80.1484375 -13.75 C-53.91448333 -25.34313692 -21.33956843 -17.78297369 0 0 Z " fill="#525555" transform="translate(600.71875,205.265625)"/>
<path d="M0 0 C1.02480469 0.00322266 2.04960937 0.00644531 3.10546875 0.00976562 C4.16894531 0.01814453 5.23242188 0.02652344 6.328125 0.03515625 C7.40707031 0.03966797 8.48601562 0.04417969 9.59765625 0.04882812 C12.25786883 0.06059898 14.91796865 0.07704226 17.578125 0.09765625 C15.60747837 3.09357174 13.62194176 6.03794355 11.5 8.9296875 C2.63692575 21.09250343 -3.79142073 34.45247424 -7.421875 49.09765625 C-7.70804687 50.19980469 -7.99421875 51.30195313 -8.2890625 52.4375 C-11.3481648 66.08692311 -11.16629801 80.16941653 -11.421875 94.09765625 C-8.121875 94.09765625 -4.821875 94.09765625 -1.421875 94.09765625 C-1.45667969 92.55078125 -1.49148438 91.00390625 -1.52734375 89.41015625 C-1.72094711 77.26496791 -1.58812699 65.89653368 1.578125 54.09765625 C1.77148438 53.35741211 1.96484375 52.61716797 2.1640625 51.85449219 C6.60267623 35.31243639 14.29276532 13.74014481 29.578125 4.09765625 C40.56958599 3.86866748 50.7898031 12.14609621 58.578125 19.09765625 C59.32707031 19.7525 60.07601562 20.40734375 60.84765625 21.08203125 C79.71775365 38.66327787 90.68684454 66.54508588 91.69293213 92.00268555 C91.77227371 99.5598587 91.51752373 107.10815502 91.265625 114.66015625 C91.20219939 116.94331612 91.14033974 119.22652005 91.08007812 121.50976562 C90.93077558 127.03969942 90.76228399 132.56877907 90.578125 138.09765625 C86.26527822 137.98331631 81.95298687 137.85393058 77.640625 137.72265625 C76.46693359 137.69171875 75.29324219 137.66078125 74.08398438 137.62890625 C67.16968572 137.41113306 60.30362578 137.01288637 53.41127014 136.41525269 C36.33858223 134.93503383 19.25501522 134.30929067 2.13446045 133.68621826 C-5.06946781 133.42381334 -12.27312974 133.15457082 -19.4765625 132.87890625 C-20.64614124 132.83438828 -20.64614124 132.83438828 -21.83934784 132.78897095 C-39.04708967 132.1277887 -56.2341678 131.15078169 -73.421875 130.09765625 C-73.49691901 124.10606519 -73.55089279 118.11475718 -73.58666992 112.12280273 C-73.60160952 110.09117864 -73.62196863 108.05958594 -73.64819336 106.02807617 C-73.79977231 93.97011937 -73.54566186 82.82228814 -70.421875 71.09765625 C-70.20265381 70.25227295 -69.98343262 69.40688965 -69.75756836 68.53588867 C-69.16409241 66.40526596 -68.50841659 64.31654197 -67.796875 62.22265625 C-67.41837402 61.1075769 -67.41837402 61.1075769 -67.03222656 59.9699707 C-58.82131603 36.83834195 -44.36187649 17.69956948 -22.421875 6.09765625 C-15.04830949 2.85360941 -8.11118286 -0.04506213 0 0 Z " fill="#666B6A" transform="translate(471.421875,212.90234375)"/>
<path d="M0 0 C6.86352976 0.62395725 11.17148516 3.7017721 15.8125 8.6875 C20.63173784 14.49893387 21.85991 19.25965067 21.69140625 26.71875 C20.92362596 34.56192096 18.00455635 40.33627187 11.9140625 45.41796875 C10.50253906 46.44857422 10.50253906 46.44857422 9.0625 47.5 C8.53994629 47.88381836 8.01739258 48.26763672 7.47900391 48.66308594 C5.80463695 49.88828081 4.12254495 51.1020405 2.4375 52.3125 C1.89802734 52.70066895 1.35855469 53.08883789 0.80273438 53.48876953 C-2.03987494 55.53051197 -4.88943726 57.56230107 -7.7421875 59.58984375 C-11.94702671 62.58119849 -16.13055491 65.6017553 -20.3125 68.625 C-21.06998535 69.1725293 -21.8274707 69.72005859 -22.60791016 70.28417969 C-24.154694 71.40240747 -25.70140587 72.52073482 -27.24804688 73.63916016 C-31.7640288 76.90419603 -36.28205189 80.16640803 -40.80053711 83.42797852 C-44.61595269 86.18247179 -48.42909717 88.94001916 -52.23828125 91.703125 C-55.98768198 94.42189222 -59.74354283 97.13146319 -63.50537109 99.83300781 C-64.83317808 100.78796987 -66.15916375 101.74547186 -67.48291016 102.70605469 C-69.21157979 103.95879459 -70.94811206 105.19970421 -72.6875 106.4375 C-73.63882812 107.12070312 -74.59015625 107.80390625 -75.5703125 108.5078125 C-81.71654345 112.21480819 -87.33652024 113.80513307 -94.55859375 113.62109375 C-95.32328476 113.6110582 -96.08797577 113.60102264 -96.87583923 113.59068298 C-107.4879945 113.36549853 -118.05943495 112.33161086 -128.625 111.375 C-132.76141506 111.00821318 -136.89821538 110.64595928 -141.03515625 110.28515625 C-142.02649567 110.19779205 -143.01783508 110.11042786 -144.03921509 110.02041626 C-151.38743228 109.3834979 -158.73254195 108.91327794 -166.09936523 108.55639648 C-169.31547307 108.32989724 -172.38913966 107.86266649 -175.5625 107.3125 C-177.04094468 107.19972517 -178.52199691 107.11602039 -180.00390625 107.06640625 C-180.82375 107.03482422 -181.64359375 107.00324219 -182.48828125 106.97070312 C-183.35839844 106.93912109 -184.22851562 106.90753906 -185.125 106.875 C-192.46781001 106.57162059 -199.75245603 106.06619785 -207.0625 105.3125 C-213.79409061 104.62284377 -220.48835747 104.13177968 -227.25 103.875 C-236.50886399 103.5117854 -245.71351743 102.72345723 -254.9375 101.875 C-267.30706947 100.73849662 -279.6692254 99.77744498 -292.06982422 99.04711914 C-308.66499512 98.05449549 -325.22938985 96.63236608 -341.78515625 95.12890625 C-366.79561301 92.85812475 -391.78675018 90.80940356 -416.85766602 89.34057617 C-430.31318627 88.54780978 -443.73501581 87.54266842 -457.15771484 86.31396484 C-465.1097711 85.58922809 -473.0490603 85.01061 -481.02148438 84.58056641 C-484.26014978 84.3353889 -487.36520052 83.86429424 -490.5625 83.3125 C-492.03578491 83.20045534 -493.51158675 83.11636391 -494.98828125 83.06640625 C-496.18420898 83.01709961 -496.18420898 83.01709961 -497.40429688 82.96679688 C-499.03958844 82.90603901 -500.67501079 82.84869652 -502.31054688 82.79492188 C-512.67597519 82.35295269 -521.27299104 80.60200896 -528.8125 73.0625 C-534.12980666 64.70673239 -536.18547881 57.13757643 -534.125 47.203125 C-532.42158504 42.39097774 -529.03808769 38.65884355 -524.5625 36.3125 C-518.76788006 35.27643663 -514.04392589 36.3395049 -508.5625 38.3125 C-508.53527483 40.52076378 -508.51600271 42.72912638 -508.5 44.9375 C-508.48839844 46.16726563 -508.47679687 47.39703125 -508.46484375 48.6640625 C-508.55402908 51.99602633 -508.97933934 55.03953602 -509.5625 58.3125 C-508.76273743 58.30234863 -507.96297485 58.29219727 -507.13897705 58.28173828 C-499.57636988 58.22739188 -492.14127898 58.53791228 -484.609375 59.1875 C-482.32497517 59.37369324 -480.04046494 59.55853587 -477.75585938 59.7421875 C-476.57757568 59.83725586 -475.39929199 59.93232422 -474.18530273 60.03027344 C-468.09025908 60.50509455 -461.99075587 60.90923194 -455.890625 61.3125 C-454.65461548 61.39483887 -453.41860596 61.47717773 -452.1451416 61.56201172 C-447.09739463 61.89773197 -442.04951393 62.23135315 -437.00146484 62.5625 C-423.89233671 63.42443317 -410.79734989 64.32519162 -397.7177887 65.56236267 C-387.42530527 66.53109274 -377.11742821 67.28884564 -366.809021 68.06573486 C-361.63874721 68.45872272 -356.46983301 68.86865422 -351.30078125 69.27734375 C-329.81279936 70.96613523 -308.32681335 72.55965279 -286.8125 73.875 C-273.01164612 74.71982363 -259.26579233 75.72613381 -245.50756836 77.11523438 C-229.26375805 78.71159636 -212.97431821 79.75312429 -196.69165039 80.86694336 C-186.51247064 81.56805116 -176.34482587 82.28736965 -166.19140625 83.30078125 C-154.14897822 84.50162371 -142.08221181 85.33650671 -130.00976562 86.17236328 C-126.14425235 86.44049993 -122.27915487 86.71415086 -118.4140625 86.98828125 C-115.93491854 87.16178314 -113.45575265 87.33497194 -110.9765625 87.5078125 C-109.83176422 87.58903351 -108.68696594 87.67025452 -107.50747681 87.75393677 C-104.52652147 87.95850966 -101.54574759 88.14498831 -98.5625 88.3125 C-97.84109329 88.3551297 -97.11968658 88.3977594 -96.37641907 88.44168091 C-92.75886969 88.56557512 -90.56185543 88.21749892 -87.65234375 86.0390625 C-86.98017822 85.54929932 -86.3080127 85.05953613 -85.61547852 84.55493164 C-84.91737061 84.0211792 -84.2192627 83.48742676 -83.5 82.9375 C-82.75613037 82.3902124 -82.01226074 81.8429248 -81.24584961 81.27905273 C-79.72669588 80.16115427 -78.21207839 79.03706414 -76.70214844 77.90673828 C-73.71187643 75.67870585 -70.66925012 73.52827188 -67.625 71.375 C-61.38252213 66.91973088 -55.17307643 62.41866951 -48.95996094 57.92260742 C-45.11910066 55.14659311 -41.26874995 52.38915346 -37.375 49.6875 C-20.22370299 38.3985626 -20.22370299 38.3985626 -4.5625 25.3125 C-4.41697268 23.54516824 -4.33527531 21.77249006 -4.28125 20 C-4.22517578 18.38738281 -4.22517578 18.38738281 -4.16796875 16.7421875 C-4.11576172 15.04449219 -4.11576172 15.04449219 -4.0625 13.3125 C-3.99394506 11.08319493 -3.9212576 8.85401176 -3.84375 6.625 C-3.79831055 5.13419922 -3.79831055 5.13419922 -3.75195312 3.61328125 C-3.48431009 0.36293589 -3.25779104 0.39729159 0 0 Z " fill="#E7E7E8" transform="translate(769.5625,740.6875)"/>
<path d="M0 0 C0.95777344 0.31066406 1.91554688 0.62132812 2.90234375 0.94140625 C22.85385136 7.97013642 37.16854663 26.63180358 46 45 C53.81858094 62.1947698 56.1748457 79.31669866 56.0625 98 C56.05747576 99.45702971 56.05291449 100.9140611 56.04882812 102.37109375 C56.03789388 105.9140977 56.02068 109.45703797 56 113 C36.88983849 113.32010321 18.04428469 112.43701606 -1 111 C-1.05607422 109.5459375 -1.05607422 109.5459375 -1.11328125 108.0625 C-2.54613649 76.6663459 -13.44992977 45.34893129 -36.484375 23.16015625 C-43.92627525 16.76982886 -52.28751074 11.48006553 -61 7 C-46.83064295 -10.24965206 -18.28471655 -6.48084533 0 0 Z " fill="#FDFDFC" transform="translate(574,202)"/>
<path d="M0 0 C9.27659282 2.96451261 16.97764633 8.27053092 24.17578125 14.6953125 C25.29919922 15.67757812 25.29919922 15.67757812 26.4453125 16.6796875 C40.94927033 30.19300723 49.45038988 48.74625564 54.17578125 67.6953125 C54.40136719 68.43523437 54.62695312 69.17515625 54.859375 69.9375 C57.10751559 77.90677077 56.33499457 86.49582653 56.17578125 94.6953125 C43.81071027 94.84288009 31.52293293 94.3783588 19.17578125 93.7578125 C16.31163237 93.61774172 13.44742489 93.4789211 10.58320618 93.34028625 C8.70728044 93.24946889 6.83137471 93.1582373 4.95549011 93.0665741 C-3.28466682 92.66604596 -11.52645688 92.32254511 -19.77148438 92.03735352 C-24.84412242 91.84522295 -29.7956088 91.39711389 -34.82421875 90.6953125 C-35.63784761 56.29758778 -35.63784761 56.29758778 -30.82421875 42.6953125 C-30.54707031 41.70144531 -30.26992188 40.70757812 -29.984375 39.68359375 C-26.83464942 28.81196031 -14.47347987 -2.91329145 0 0 Z " fill="#FCFDFC" transform="translate(505.82421875,217.3046875)"/>
<path d="M0 0 C-1.97064663 2.99591549 -3.95618324 5.9402873 -6.078125 8.83203125 C-14.93595684 20.987653 -21.38773199 34.35709894 -25 49 C-25.41185547 50.65322266 -25.41185547 50.65322266 -25.83203125 52.33984375 C-28.79284585 66.00626383 -29.21359015 80.07334514 -30 94 C-38.88394184 94.04472617 -47.7472295 93.96434335 -56.625 93.625 C-57.73149902 93.58318604 -58.83799805 93.54137207 -59.97802734 93.49829102 C-70.03399255 93.07549817 -80.00514506 92.16193009 -90 91 C-92.20803194 69.16501744 -79.82851763 44.14338308 -66.8125 27.375 C-48.53872283 5.92183255 -27.50165859 -0.9163695 0 0 Z " fill="#FCFDFC" transform="translate(489,213)"/>
<path d="M0 0 C0.33 0 0.66 0 1 0 C1 7.59 1 15.18 1 23 C4.08178589 23.07238892 4.08178589 23.07238892 7.22583008 23.14624023 C29.53911793 23.69692728 51.81100862 24.71689956 74.09753418 25.9229126 C78.51081788 26.16076856 82.92436683 26.39360233 87.33789062 26.62695312 C95.89218278 27.07992858 104.44618381 27.53812374 113 28 C113 28.33 113 28.66 113 29 C110.27123692 29.33695862 107.54206837 29.66968429 104.8125 30 C103.65911133 30.14308594 103.65911133 30.14308594 102.48242188 30.2890625 C96.47239189 31.01129786 96.47239189 31.01129786 93.38671875 30.9375 C90.06264034 31.02454624 87.18915564 32.06412304 84 33 C80.63897414 33.72412346 77.25941123 34.33330149 73.875 34.9375 C72.91215088 35.11079834 71.94930176 35.28409668 70.95727539 35.46264648 C59.03671001 37.57211098 47.0518821 39.20631261 35.05078125 40.78125 C33.59490601 40.97738892 33.59490601 40.97738892 32.10961914 41.17749023 C30.23615844 41.42972685 28.36164891 41.67431877 26.48608398 41.91040039 C25.23226929 42.08043579 25.23226929 42.08043579 23.953125 42.25390625 C22.84179199 42.39807983 22.84179199 42.39807983 21.70800781 42.54516602 C21.14436523 42.69526123 20.58072266 42.84535645 20 43 C19.505 43.99 19.505 43.99 19 45 C20.19625 45.350625 21.3925 45.70125 22.625 46.0625 C28.78385401 48.11222849 34.45536343 51.11652982 40.20703125 54.0859375 C44.02879037 56.03428529 47.90560502 57.87522567 51.76953125 59.73828125 C54 61 54 61 55 63 C35.27196296 63.20899677 15.67070892 62.69522317 -4.02990723 61.66760254 C-7.44089941 61.49122489 -10.85230063 61.32315452 -14.26367188 61.15429688 C-20.68712297 60.83516785 -27.11012845 60.50773783 -33.53302002 60.17755127 C-38.66632154 59.9146642 -43.79993249 59.65809428 -48.93359375 59.40234375 C-49.76883072 59.36065567 -50.60406769 59.31896759 -51.46461487 59.27601624 C-53.30973907 59.18392722 -55.15486877 59.09194824 -57 59 C-56.67 58.34 -56.34 57.68 -56 57 C-55.98336521 54.22591569 -56.02734196 51.48172287 -56.12109375 48.7109375 C-56.15651024 47.48330185 -56.15651024 47.48330185 -56.19264221 46.23086548 C-56.26932944 43.6120694 -56.35333183 40.99356529 -56.4375 38.375 C-56.49071563 36.60157688 -56.54345607 34.82813942 -56.59570312 33.0546875 C-56.7249514 28.70293946 -56.86076152 24.35143939 -57 20 C-44.65813206 19.82713462 -32.38580212 20.3733736 -20.0625 21 C-18.10743848 21.09669045 -16.1523604 21.19304682 -14.19726562 21.2890625 C-9.46460215 21.52158641 -4.73235506 21.76092748 0 22 C0 14.74 0 7.48 0 0 Z " fill="#666A6A" transform="translate(630,293)"/>
<path d="M0 0 C4.84122917 1.76573889 9.27985594 4.19990559 13.8125 6.625 C20.06109616 9.94748905 26.3370349 13.18927066 32.6875 16.3125 C37.9975633 18.93071504 43.07090398 21.71393599 48 25 C46.47705379 28.94903493 44.13372722 30.67315488 40.75 33.125 C40.22132324 33.51115479 39.69264648 33.89730957 39.14794922 34.29516602 C37.43849136 35.5394296 35.72021309 36.77065823 34 38 C32.8619114 38.81891624 31.72389049 39.63792657 30.5859375 40.45703125 C27.65204213 42.5629587 24.70969649 44.65677707 21.76464844 46.74707031 C18.92329159 48.76448084 16.08623549 50.78789806 13.25 52.8125 C12.68079834 53.21863525 12.11159668 53.62477051 11.52514648 54.04321289 C7.4957511 56.9218285 3.48041437 59.81945069 -0.53076172 62.72338867 C-7.37516087 67.67763223 -14.23224058 72.61319952 -21.125 77.5 C-21.79893799 77.98001465 -22.47287598 78.4600293 -23.16723633 78.95458984 C-27.67695164 82.14180636 -32.2883226 85.12020778 -37 88 C-35.87465225 80.32140145 -33.43381936 73.95597637 -30.0625 67 C-25.30338348 56.92988147 -20.87110847 46.76034928 -16.61743164 36.46679688 C-15.97149048 34.91508789 -15.97149048 34.91508789 -15.3125 33.33203125 C-14.93738281 32.42171143 -14.56226563 31.5113916 -14.17578125 30.57348633 C-12.96076615 27.91412706 -11.51804958 25.49589933 -10 23 C-9.16842926 20.95326297 -8.37876611 18.88915091 -7.625 16.8125 C-5.44429825 10.99287649 -2.91070234 5.48698357 0 0 Z " fill="#8D9295" transform="translate(717,740)"/>
<path d="M0 0 C11.88 0.33 23.76 0.66 36 1 C35.67 13.87 35.34 26.74 35 40 C28.72735366 39.75685412 22.45502101 39.51017906 16.18286133 39.25537109 C14.06054189 39.1701143 11.93814724 39.08670463 9.81567383 39.00537109 C-2.47532402 38.53297687 -14.69946756 37.83564427 -26.94790649 36.70159912 C-34.94688614 35.97094028 -42.90816704 35.58366702 -50.9375 35.375 C-52.21689453 35.33632813 -53.49628906 35.29765625 -54.81445312 35.2578125 C-57.87618513 35.16607521 -60.93794452 35.08005799 -64 35 C-61.27074702 32.27074702 -58.41671589 32.18077325 -54.74609375 31.59765625 C-54.01238052 31.4744249 -53.2786673 31.35119354 -52.52272034 31.22422791 C-50.16216711 30.82940672 -47.79996889 30.44567475 -45.4375 30.0625 C-43.90417136 29.80869985 -42.37096662 29.55414997 -40.83789062 29.29882812 C-38.53656205 28.91562543 -36.23511418 28.53335266 -33.93295288 28.15518188 C-30.07441534 27.52006535 -26.2203862 26.86713379 -22.37158203 26.17529297 C-21.62167496 26.04054062 -20.87176788 25.90578827 -20.09913635 25.76695251 C-18.69820289 25.5136054 -17.29771269 25.25778698 -15.89781189 24.99879456 C-10.91967278 24.09799883 -6.06246368 23.56249596 -1 23 C-0.67 15.41 -0.34 7.82 0 0 Z " fill="#7D8183" transform="translate(352,302)"/>
<path d="M0 0 C1.4783226 2.95664519 1.06032783 5.74229737 1 9 C1.33 8.34 1.66 7.68 2 7 C2.66 7 3.32 7 4 7 C7.34725499 22.99908187 7.32864959 38.70403651 7 55 C3.7 55 0.4 55 -3 55 C-3.06058594 53.44410156 -3.12117187 51.88820313 -3.18359375 50.28515625 C-3.26806447 48.21093079 -3.35270913 46.1367124 -3.4375 44.0625 C-3.47681641 43.04091797 -3.51613281 42.01933594 -3.55664062 40.96679688 C-3.78062255 35.5740012 -4.14275317 30.25080348 -4.78833008 24.89233398 C-5.53323103 18.23290229 -5.66061059 10.52287841 -4 4 C-1.9375 1.4375 -1.9375 1.4375 0 0 Z " fill="#4D4E4E" transform="translate(634,261)"/>
<path d="M0 0 C0.51627434 5.42088056 -1.05475852 7.58213778 -4 12 C-4.69035916 16.14215496 -4.20227556 17.65417405 -2.0625 21.3125 C-0.2557452 23.78773964 -0.2557452 23.78773964 1 25 C5.66927187 25.51880799 9.68259116 25.96395769 13.5625 23.125 C16.21003637 19.21125059 16.7208387 15.67140922 16 11 C14.68733482 9.64631404 13.35432675 8.31200404 12 7 C11.75 3.25 11.75 3.25 12 0 C15.50509251 0.56263958 16.95268008 1.65185182 19.1875 4.375 C19.69667969 4.98085938 20.20585937 5.58671875 20.73046875 6.2109375 C23.67424195 10.35939327 23.68633798 15.12463368 23 20 C21.04565403 24.99541346 17.96019957 29.00781197 13.08203125 31.3671875 C7.86594513 32.95256452 2.62824194 33.22133411 -2.37890625 30.89453125 C-7.01035885 27.71307302 -9.48035097 24.50872774 -11 19 C-11.72908988 13.63598157 -10.95147383 9.57987318 -8 5 C-3.65217391 0 -3.65217391 0 0 0 Z " fill="#BBBFC0" transform="translate(386,378)"/>
<path d="M0 0 C3.96 0 7.92 0 12 0 C10.68 0.33 9.36 0.66 8 1 C8 1.99 8 2.98 8 4 C9.44052734 4.33644531 9.44052734 4.33644531 10.91015625 4.6796875 C15.81477716 6.08100776 20.03876817 8.59422278 24.4375 11.125 C25.26443359 11.59292969 26.09136719 12.06085938 26.94335938 12.54296875 C28.96607535 13.68878474 30.98470519 14.8411975 33 16 C32.505 17.485 32.505 17.485 32 19 C28.08613235 19.57328174 24.17174179 20.14283468 20.25683594 20.70898438 C18.27250112 20.99673706 16.28859113 21.28741437 14.3046875 21.578125 C12.42910156 21.84882813 12.42910156 21.84882813 10.515625 22.125 C9.36352539 22.29257812 8.21142578 22.46015625 7.02441406 22.6328125 C4 23 4 23 0 23 C0 15.41 0 7.82 0 0 Z " fill="#909495" transform="translate(352,302)"/>
<path d="M0 0 C0.45345334 5.78153003 -0.47758339 7.59697924 -4 12 C-4.62376056 16.99008444 -4.07972115 20.00776889 -1 24 C2.70111454 26.4674097 5.70820405 26.77653117 10 26 C13.20653576 24.29388912 13.20653576 24.29388912 15 21 C15.5648741 17.58902949 15.69055818 14.39524438 15 11 C14.00768212 9.99237645 13.00794664 8.9919897 12 8 C11.60921444 5.27492202 11.86383047 2.76878044 12 0 C17.13031364 2.34528623 19.93812558 5.84531396 22 11 C22.87060996 16.29871233 22.66688036 20.53286321 20.4375 25.4375 C15.75743619 30.35756708 12.14966786 32.2264062 5.4375 32.5 C-0.93473861 32.23812718 -4.0303322 30.07333453 -8.375 25.5 C-10.77131539 20.33870532 -10.76102467 15.59622182 -10 10 C-8.38113668 6.64235756 -4.38483289 0 0 0 Z " fill="#BEC3C3" transform="translate(562,387)"/>
<path d="M0 0 C9.24 0 18.48 0 28 0 C27.67 12.87 27.34 25.74 27 39 C26.67 39 26.34 39 26 39 C26 31.08 26 23.16 26 15 C24.02 14.34 22.04 13.68 20 13 C18.75089594 12.41312915 17.51685865 11.791914 16.30859375 11.125 C15.67373047 10.77953125 15.03886719 10.4340625 14.38476562 10.078125 C13.74216797 9.72234375 13.09957031 9.3665625 12.4375 9 C8.35907749 6.75544444 4.38104668 4.6145124 0 3 C0 2.01 0 1.02 0 0 Z " fill="#696E6F" transform="translate(360,303)"/>
<path d="M0 0 C4.54781487 0.61419655 8.53314635 1.78933751 12.8125 3.4375 C13.95332031 3.86933594 15.09414063 4.30117187 16.26953125 4.74609375 C19 6 19 6 20 8 C19.175 8.391875 18.35 8.78375 17.5 9.1875 C16.675 9.785625 15.85 10.38375 15 11 C14.58219121 13.62694422 14.58219121 13.62694422 15 16 C10.50792022 15.22641288 6.26728329 13.88902305 1.9375 12.5 C-3.99025168 10.60733986 -3.99025168 10.60733986 -10 9 C-9.4375 7.1875 -9.4375 7.1875 -8 5 C-5.69034152 3.94647157 -3.3570226 2.94280904 -1 2 C-0.67 1.34 -0.34 0.68 0 0 Z " fill="#57595A" transform="translate(567,189)"/>
<path d="M0 0 C3.10689488 3.10689488 4.06871397 7.04711814 5.5625 11.125 C5.87896484 11.95515625 6.19542969 12.7853125 6.52148438 13.640625 C8.42151832 18.78806305 9.85189302 23.49042035 10 29 C9.01 30.32 8.02 31.64 7 33 C7 29.7 7 26.4 7 23 C3.82560892 26.17439108 3.6478526 26.44366042 3.4375 30.5625 C3.20833333 34.79166667 3.20833333 34.79166667 1 37 C0.18709249 33.91677396 -0.62525444 30.83340049 -1.4375 27.75 C-1.66759766 26.87730469 -1.89769531 26.00460937 -2.13476562 25.10546875 C-2.35712891 24.26113281 -2.57949219 23.41679687 -2.80859375 22.546875 C-3.01282959 21.77182617 -3.21706543 20.99677734 -3.42749023 20.19824219 C-3.71088257 19.1101123 -3.71088257 19.1101123 -4 18 C-4.20890869 17.29262695 -4.41781738 16.58525391 -4.63305664 15.85644531 C-5.1297059 13.34378998 -4.29761154 12.13724254 -3 10 C-2.34 10 -1.68 10 -1 10 C-1.33 7.03 -1.66 4.06 -2 1 C-1.34 0.67 -0.68 0.34 0 0 Z " fill="#575858" transform="translate(627,239)"/>
<path d="M0 0 C0.49353702 6.29259694 0.49353702 6.29259694 -1.875 9.6875 C-2.57625 10.450625 -3.2775 11.21375 -4 12 C-6.09932628 14.89906962 -6.0428875 16.80394218 -5.625 20.25 C-5.315625 22.10625 -5.315625 22.10625 -5 24 C-5.99 24.33 -6.98 24.66 -8 25 C-11.11841678 20.32237483 -10.58751827 15.47625052 -10 10 C-8.38113668 6.64235756 -4.38483289 0 0 0 Z " fill="#C0C6C6" transform="translate(562,387)"/>
<path d="M0 0 C0.99 0 1.98 0 3 0 C7 4.34285714 7 4.34285714 7 7 C7.99 7.33 8.98 7.66 10 8 C9.6478759 10.64093077 9.34271564 11.71848358 7.25 13.4375 C5 14 5 14 2.625 12.9375 C-0.36193178 10.73285988 -3.18584907 8.42147871 -6 6 C-5.195625 5.38125 -4.39125 4.7625 -3.5625 4.125 C-0.96125481 2.25835959 -0.96125481 2.25835959 0 0 Z " fill="#545454" transform="translate(529,221)"/>
<path d="M0 0 C4.43744539 -0.05793591 8.87479389 -0.09357467 13.3125 -0.125 C14.57513672 -0.14175781 15.83777344 -0.15851563 17.13867188 -0.17578125 C18.95141602 -0.18544922 18.95141602 -0.18544922 20.80078125 -0.1953125 C21.91622314 -0.20578613 23.03166504 -0.21625977 24.1809082 -0.22705078 C27 0 27 0 30 2 C20.43 2.33 10.86 2.66 1 3 C0.67 2.01 0.34 1.02 0 0 Z " fill="#636766" transform="translate(476,309)"/>
<path d="M0 0 C3.64576392 -0.05878077 7.29140352 -0.0938558 10.9375 -0.125 C12.46987305 -0.15013672 12.46987305 -0.15013672 14.03320312 -0.17578125 C20.35688352 -0.21618815 25.88316527 0.37989987 32 2 C32 2.33 32 2.66 32 3 C24.41 3 16.82 3 9 3 C9 2.67 9 2.34 9 2 C6.03 1.67 3.06 1.34 0 1 C0 0.67 0 0.34 0 0 Z " fill="#6A6C6D" transform="translate(469,202)"/>
<path d="M0 0 C2.5 1.3125 2.5 1.3125 5 4 C5.99731482 9.28329588 5.64580499 13.66055262 3.3125 18.5 C0.94397573 21.06056678 -0.74369112 22.72924532 -4 24 C-6.8125 23.1875 -6.8125 23.1875 -9 22 C-9 21.67 -9 21.34 -9 21 C-7.01432292 20.609375 -5.02864583 20.21875 -3.04296875 19.828125 C-0.32703748 18.72721213 0.56657514 17.53844898 2 15 C2.47110255 12.55261739 2.47110255 12.55261739 2.375 10 C2.38273438 9.154375 2.39046875 8.30875 2.3984375 7.4375 C1.9291142 4.56634568 0.89489101 3.16558973 -1 1 C-0.67 0.67 -0.34 0.34 0 0 Z " fill="#AAAFAC" transform="translate(575,393)"/>
<path d="M0 0 C0.94875 0.165 1.8975 0.33 2.875 0.5 C7.5763877 1.18541792 12.26003286 1.08583441 17 1 C17 1.66 17 2.32 17 3 C15.96101562 3.04898438 14.92203125 3.09796875 13.8515625 3.1484375 C6.08046683 3.55209446 -1.41572228 4.12216201 -9 6 C-9 5.34 -9 4.68 -9 4 C-6.36 3.67 -3.72 3.34 -1 3 C-0.67 2.01 -0.34 1.02 0 0 Z " fill="#5F6263" transform="translate(539,194)"/>
<path d="M0 0 C0.3125 3.1875 0.3125 3.1875 0 7 C-2.5 9.9375 -2.5 9.9375 -5 12 C-5.66 9.69 -6.32 7.38 -7 5 C-1.125 0 -1.125 0 0 0 Z " fill="#BAC0C1" transform="translate(562,387)"/>
<path d="M0 0 C2.88575819 0.39803561 3.82189513 0.79009069 5.75 3.0625 C6.1625 3.701875 6.575 4.34125 7 5 C6.34 5 5.68 5 5 5 C4.67 6.65 4.34 8.3 4 10 C2 8.9375 2 8.9375 0 7 C-0.25 3.3125 -0.25 3.3125 0 0 Z " fill="#B4B9BA" transform="translate(398,378)"/>
<path d="M0 0 C0.99 0 1.98 0 3 0 C3.66 1.65 4.32 3.3 5 5 C4.34 5.66 3.68 6.32 3 7 C2.28591666 8.98356483 1.61382258 10.98315437 1 13 C0.67 13 0.34 13 0 13 C-0.19658808 11.58456585 -0.38187546 10.16755969 -0.5625 8.75 C-0.66691406 7.96109375 -0.77132813 7.1721875 -0.87890625 6.359375 C-1.00027349 3.99467126 -0.69633257 2.2488963 0 0 Z " fill="#B9BDBE" transform="translate(403,383)"/>
<path d="M0 0 C4.03384128 2.07143201 5.92856799 3.96615872 8 8 C5.39417629 8.93065133 4.35801776 9.14917407 1.75 8.0625 C1.1725 7.711875 0.595 7.36125 0 7 C0 4.69 0 2.38 0 0 Z " fill="#B7BDBC" transform="translate(574,387)"/>
<path d="M0 0 C0.66 0.99 1.32 1.98 2 3 C-2.30769231 8.78461538 -2.30769231 8.78461538 -5.8125 9.875 C-6.534375 9.91625 -7.25625 9.9575 -8 10 C-8 9.34 -8 8.68 -8 8 C-9.65 8 -11.3 8 -13 8 C-13 7.67 -13 7.34 -13 7 C-11.96939453 6.87044922 -11.96939453 6.87044922 -10.91796875 6.73828125 C-5.1317298 6.01243461 -5.1317298 6.01243461 -0.875 2.375 C-0.58625 1.59125 -0.2975 0.8075 0 0 Z " fill="#A7AAAD" transform="translate(402,397)"/>
<path d="M0 0 C1.52342979 2.93804317 2.92770717 5.86560559 4 9 C3.67 9.66 3.34 10.32 3 11 C2.34 11 1.68 11 1 11 C0.67 11.66 0.34 12.32 0 13 C-0.66 12.01 -1.32 11.02 -2 10 C-1.34 9.34 -0.68 8.68 0 8 C-0.28730055 5.66055264 -0.61936779 3.3260857 -1 1 C-0.67 0.67 -0.34 0.34 0 0 Z " fill="#B7BCBC" transform="translate(556,402)"/>
<path d="M0 0 C0.66 0 1.32 0 2 0 C0.9594481 2.74327319 -0.00500018 4.0040542 -2.3125 5.875 C-5 7 -5 7 -7.8125 6.1875 C-8.534375 5.795625 -9.25625 5.40375 -10 5 C-10 4.67 -10 4.34 -10 4 C-7.98177083 3.54427083 -5.96354167 3.08854167 -3.9453125 2.6328125 C-1.79280036 2.09525572 -1.79280036 2.09525572 0 0 Z " fill="#B4B8B7" transform="translate(576,410)"/>
<path d="M0 0 C2.97 0 5.94 0 9 0 C9 0.66 9 1.32 9 2 C9.66 2.33 10.32 2.66 11 3 C7.7 3 4.4 3 1 3 C0.67 2.01 0.34 1.02 0 0 Z " fill="#5B605F" transform="translate(476,309)"/>
<path d="M0 0 C0.99 0.33 1.98 0.66 3 1 C2.75 2.875 2.75 2.875 2 5 C-0.0625 6.25 -0.0625 6.25 -2 7 C-2.66 6.34 -3.32 5.68 -4 5 C-3.01 4.67 -2.02 4.34 -1 4 C-0.26676204 1.98491642 -0.26676204 1.98491642 0 0 Z " fill="#444544" transform="translate(536,228)"/>
<path d="M0 0 C0.66 0.33 1.32 0.66 2 1 C1.67 2.65 1.34 4.3 1 6 C0.236875 5.67 -0.52625 5.34 -1.3125 5 C-3.99069135 3.82563314 -3.99069135 3.82563314 -7 4 C-4.61426621 2.10786631 -2.92824652 0.97608217 0 0 Z " fill="#616465" transform="translate(520,192)"/>
<path d="M0 0 C0.33 0 0.66 0 1 0 C1 4.95 1 9.9 1 15 C-1 14 -1 14 -1.68359375 12.265625 C-2.06643107 9.52432073 -1.66552088 7.44585806 -1.0625 4.75 C-0.86785156 3.85796875 -0.67320312 2.9659375 -0.47265625 2.046875 C-0.31667969 1.37140625 -0.16070313 0.6959375 0 0 Z " fill="#999D9F" transform="translate(756,554)"/>
<path d="M0 0 C0.99 0 1.98 0 3 0 C3 1.32 3 2.64 3 4 C3.99 4.33 4.98 4.66 6 5 C3.36 4.67 0.72 4.34 -2 4 C-1.34 2.68 -0.68 1.36 0 0 Z " fill="#6B6D6D" transform="translate(559,194)"/>
<path d="M0 0 C3.63 0 7.26 0 11 0 C9.68 0.33 8.36 0.66 7 1 C7 1.66 7 2.32 7 3 C4.0625 2.625 4.0625 2.625 1 2 C0.67 1.34 0.34 0.68 0 0 Z " fill="#7F8181" transform="translate(353,302)"/>
<path d="M0 0 C-2.64 1.98 -5.28 3.96 -8 6 C-7.75 3.625 -7.75 3.625 -7 1 C-4.12732844 -1.10662581 -3.46720491 -1.15573497 0 0 Z " fill="#626466" transform="translate(439,226)"/>
<path d="M0 0 C0.99 0 1.98 0 3 0 C3.33 0.99 3.66 1.98 4 3 C3.34 3 2.68 3 2 3 C2 3.66 2 4.32 2 5 C0.35 5.33 -1.3 5.66 -3 6 C-2 4 -1 2 0 0 Z " fill="#474748" transform="translate(529,221)"/>
<path d="M0 0 C1.32 0 2.64 0 4 0 C4 0.66 4 1.32 4 2 C4.99 2 5.98 2 7 2 C6.67 2.99 6.34 3.98 6 5 C3.69 4.01 1.38 3.02 -1 2 C-0.67 1.34 -0.34 0.68 0 0 Z " fill="#606161" transform="translate(507,216)"/>
<path d="M0 0 C0.99 0.33 1.98 0.66 3 1 C2.25 6.75 2.25 6.75 0 9 C0 6.03 0 3.06 0 0 Z " fill="#5C5E5E" transform="translate(634,263)"/>
<path d="M0 0 C0.99 0.33 1.98 0.66 3 1 C0.525 4.465 0.525 4.465 -2 8 C-2.33 6.68 -2.66 5.36 -3 4 C-1.5625 1.75 -1.5625 1.75 0 0 Z " fill="#5B5D5F" transform="translate(423,236)"/>
<path d="M0 0 C2.97 0 5.94 0 9 0 C6.23776722 2.76223278 3.79293383 2.57856291 0 3 C0 2.01 0 1.02 0 0 Z " fill="#575A5B" transform="translate(550,187)"/>
<path d="M0 0 C0.33 0 0.66 0 1 0 C1 2.64 1 5.28 1 8 C0.01 8.33 -0.98 8.66 -2 9 C-2 7.35 -2 5.7 -2 4 C-1.34 4 -0.68 4 0 4 C0 2.68 0 1.36 0 0 Z " fill="#919598" transform="translate(748,396)"/>
<path d="M0 0 C2 0 2 0 3.6875 1.25 C4.120625 1.8275 4.55375 2.405 5 3 C4.6875 5.1875 4.6875 5.1875 4 7 C2 5.75 2 5.75 0 4 C0 2.68 0 1.36 0 0 Z " fill="#ADB1B1" transform="translate(398,381)"/>
<path d="M0 0 C0 0.99 0 1.98 0 3 C-3 5 -3 5 -6 5 C-3.74193548 0 -3.74193548 0 0 0 Z " fill="#454748" transform="translate(587,197)"/>
<path d="M0 0 C0.66 0.99 1.32 1.98 2 3 C1.01 4.32 0.02 5.64 -1 7 C-2.32 6.67 -3.64 6.34 -5 6 C-4.360625 5.38125 -3.72125 4.7625 -3.0625 4.125 C-0.96116416 2.17402388 -0.96116416 2.17402388 0 0 Z " fill="#ADB0B2" transform="translate(402,397)"/>
<path d="M0 0 C1.65 0.99 3.3 1.98 5 3 C4.67 3.99 4.34 4.98 4 6 C2 6 2 6 0.375 4.5 C-0.07875 4.005 -0.5325 3.51 -1 3 C-0.67 2.01 -0.34 1.02 0 0 Z " fill="#454848" transform="translate(422,229)"/>
<path d="M0 0 C0.66 0.33 1.32 0.66 2 1 C1.67 1.99 1.34 2.98 1 4 C-0.65 4 -2.3 4 -4 4 C-4.33 3.34 -4.66 2.68 -5 2 C-2.625 0.9375 -2.625 0.9375 0 0 Z " fill="#4A4B4C" transform="translate(501,204)"/>
</svg>
