<?xml version="1.0" encoding="UTF-8"?>
<svg version="1.1" xmlns="http://www.w3.org/2000/svg" width="872" height="876">
<path d="M0 0 C287.76 0 575.52 0 872 0 C872 289.08 872 578.16 872 876 C584.24 876 296.48 876 0 876 C0 586.92 0 297.84 0 0 Z " fill="#E9EAE9" transform="translate(0,0)"/>
<path d="M0 0 C1.48004933 -0.00668677 1.48004933 -0.00668677 2.98999864 -0.01350862 C4.08190072 -0.01332426 5.17380281 -0.01313989 6.29879284 -0.01294994 C8.02953235 -0.01846498 8.02953235 -0.01846498 9.79523629 -0.02409142 C13.00771632 -0.0332295 16.22016632 -0.03783041 19.43265712 -0.04048073 C22.8935624 -0.04437969 26.35445282 -0.05395827 29.81534863 -0.0626936 C38.17797354 -0.08246901 46.54059969 -0.09252533 54.90324214 -0.10142139 C58.83907051 -0.1058023 62.77489753 -0.1111696 66.71072483 -0.11641026 C79.79021742 -0.1334232 92.86970916 -0.14791828 105.94921112 -0.155159 C109.34448084 -0.15706896 112.73975056 -0.15898929 116.13502026 -0.16094494 C116.97892168 -0.16142868 117.82282311 -0.16191242 118.6922973 -0.16241082 C132.36877089 -0.1707145 146.04515711 -0.1960568 159.72159252 -0.22852562 C173.75530576 -0.26157168 187.78897455 -0.27960551 201.82272691 -0.28280324 C209.7052694 -0.28497056 217.58768446 -0.29375156 225.47018909 -0.31926441 C232.18207699 -0.34093793 238.89380652 -0.34903841 245.60572544 -0.33929763 C249.03120832 -0.33474318 252.45636422 -0.33670485 255.88180256 -0.35605907 C259.59366966 -0.37364393 263.30469993 -0.3667371 267.01656628 -0.35352612 C268.1017762 -0.36449536 269.18698612 -0.37546461 270.30508119 -0.38676625 C277.591861 -0.32389482 277.591861 -0.32389482 281.49387932 2.03970528 C284.37887327 5.29847926 284.37887327 5.29847926 284.26783276 8.31952381 C284.18992504 9.22645985 284.11201733 10.13339588 284.03174877 11.06781483 C283.09567399 29.67266566 289.15351709 40.32051656 299.92258739 54.53752613 C303.37724591 59.09970779 306.39265599 63.82798512 309.28565502 68.75922108 C311.85531953 73.12175542 314.46379091 77.35932819 317.45753002 81.44672108 C323.52279626 89.84142862 326.80832178 95.83475495 325.96924877 106.34906483 C324.05018226 118.04450788 320.39916261 128.28188478 311.00440502 136.07953358 C306.50022332 139.18741895 301.94654087 142.13422108 296.34815502 142.13422108 C296.34815502 194.60422108 296.34815502 247.07422108 296.34815502 301.13422108 C298.98815502 301.46422108 301.62815502 301.79422108 304.34815502 302.13422108 C309.14685148 304.62585193 312.12770915 307.18091875 314.34815502 312.13422108 C314.67244185 316.8206888 314.57940768 321.44493112 314.34815502 326.13422108 C315.63592846 326.12261951 316.9237019 326.11101795 318.25049877 326.09906483 C319.92888275 326.08968838 321.60726828 326.08058803 323.28565502 326.07172108 C324.13579174 326.06334217 324.98592846 326.05496326 325.8618269 326.04633045 C327.07515697 326.04149647 327.07515697 326.04149647 328.31299877 326.03656483 C329.43629589 326.0287096 329.43629589 326.0287096 330.58228588 326.02069569 C332.34815502 326.13422108 332.34815502 326.13422108 333.34815502 327.13422108 C333.47315502 329.63422108 333.47315502 329.63422108 333.34815502 332.13422108 C331.51604337 333.96633273 328.59409296 333.25972526 326.13712597 333.26006222 C325.47780598 333.26151566 324.818486 333.2629691 324.13918662 333.26446658 C321.90234242 333.26815211 319.66556527 333.26462844 317.42872143 333.26120472 C315.81989856 333.26235553 314.21107596 333.26394278 312.60225391 333.26593196 C308.15982303 333.27013077 303.71741345 333.26803213 299.27498245 333.26494575 C294.4923853 333.26269409 289.70979196 333.26617008 284.92719555 333.26892567 C275.54959471 333.27338489 266.17200185 333.27240622 256.79440069 333.26951303 C249.17667767 333.26725959 241.55895689 333.26694621 233.94123363 333.26803684 C232.85926696 333.26819008 231.77730029 333.26834331 230.66254675 333.26850118 C228.46492402 333.26882089 226.26730128 333.26914511 224.06967854 333.26947378 C203.43638939 333.27232901 182.80310468 333.26904086 162.16981626 333.26367341 C144.44475508 333.25920533 126.71970045 333.25998125 108.9946394 333.26459217 C88.4379004 333.26993716 67.88116529 333.27205432 47.3244257 333.26897991 C45.1346426 333.26866134 42.94485951 333.26834697 40.75507641 333.26803684 C39.6775091 333.26788257 38.5999418 333.26772829 37.48972094 333.26756934 C29.87638959 333.26670396 22.2630607 333.26816751 14.64972973 333.2705164 C5.37845821 333.27331376 -3.89280483 333.27257748 -13.16407537 333.26723565 C-17.89928402 333.26459778 -22.63447852 333.26359502 -27.36968708 333.2668848 C-31.6972318 333.26984601 -36.02474914 333.26825791 -40.35229135 333.26290725 C-41.9249469 333.26178231 -43.49760474 333.26237593 -45.07025886 333.26478304 C-47.19381165 333.26778615 -49.31726832 333.26474348 -51.44081593 333.26006222 C-52.62462156 333.25989987 -53.8084272 333.25973751 -55.02810574 333.25957024 C-57.65184498 333.13422108 -57.65184498 333.13422108 -58.65184498 332.13422108 C-58.77684498 329.63422108 -58.77684498 329.63422108 -58.65184498 327.13422108 C-57.65184498 326.13422108 -57.65184498 326.13422108 -53.83543873 326.03656483 C-52.25337816 326.04324019 -50.67133339 326.05520232 -49.08934498 326.07172108 C-48.28303638 326.0762328 -47.47672779 326.08074451 -46.6459856 326.08539295 C-44.64790742 326.0972159 -42.64986715 326.11515194 -40.65184498 326.13422108 C-40.69825123 325.19320545 -40.74465748 324.25218983 -40.79246998 323.28265858 C-41.08842911 313.07206847 -41.08842911 313.07206847 -38.96434498 308.50922108 C-37.81965748 307.33359608 -37.81965748 307.33359608 -36.65184498 306.13422108 C-35.92996998 305.37109608 -35.20809498 304.60797108 -34.46434498 303.82172108 C-31.65184498 302.13422108 -31.65184498 302.13422108 -22.65184498 301.13422108 C-22.65184498 248.66422108 -22.65184498 196.19422108 -22.65184498 142.13422108 C-25.62184498 141.14422108 -28.59184498 140.15422108 -31.65184498 139.13422108 C-41.73051259 133.37071634 -47.16684863 123.92877388 -50.65184498 113.13422108 C-52.43944943 105.51207431 -53.51557676 97.86168463 -49.91356373 90.65765858 C-47.8365974 87.45016885 -45.53592328 84.4069496 -43.24803638 81.34808826 C-40.19937438 77.11969012 -37.4839426 72.67313696 -34.71434498 68.25922108 C-33.52014675 66.37309845 -32.32484109 64.48767652 -31.12840748 62.60297108 C-30.54607349 61.68515858 -29.96373951 60.76734608 -29.36375904 59.82172108 C-26.36730216 55.11764273 -23.33272087 50.43836274 -20.29076099 45.76361561 C-19.47502126 44.50835885 -18.66719573 43.24791855 -17.86790943 41.98212147 C-16.65184498 40.13422108 -16.65184498 40.13422108 -15.2541399 38.34686756 C-10.74515104 32.23432703 -11.0106785 26.33723 -11.08934498 18.94672108 C-11.10597121 16.64079106 -11.10532864 14.3346565 -11.08543873 12.02875233 C-11.09631519 11.01659657 -11.10719166 10.0044408 -11.11839771 8.96161366 C-10.52774854 5.38217457 -9.13243924 3.72855374 -6.65184498 1.13422108 C-4.23154155 -0.07593064 -2.70480872 0.00565013 0 0 Z " fill="#72757A" transform="translate(298.6518449783325,272.86577892303467)"/>
<path d="M0 0 C1.10624186 1.65936279 2.20356111 3.3251936 3.26171875 5.015625 C9.94183995 15.48419849 16.83931269 20.88410121 28.4375 25.3125 C39.95666256 27.53549628 50.24954929 25.64705566 60.3515625 19.83203125 C67.32575484 15.00770056 71.65069993 8.67547933 75 1 C75.66 1 76.32 1 77 1 C78.26171875 2.94140625 78.26171875 2.94140625 79.6875 5.5625 C85.75048052 15.87102084 93.61951794 21.20650598 105 25 C108.03707809 25.25200799 111.07853646 25.23131004 114.125 25.25 C114.94226563 25.270625 115.75953125 25.29125 116.6015625 25.3125 C126.49693549 25.37512894 135.14231431 22.00041453 143 16 C147.25885112 11.54139039 150.54017529 6.64312727 153 1 C153.66 1 154.32 1 155 1 C156.3671875 3.01171875 156.3671875 3.01171875 157.875 5.6875 C164.03187865 16.18519956 171.14257889 21.75973863 182.89453125 25.3046875 C194.30350407 27.85914934 204.94761305 25.36957394 214.8125 19.25 C221.5328481 14.40793431 226.23336221 8.81168317 229 1 C229.66 1 230.32 1 231 1 C231.4021875 1.94359375 231.4021875 1.94359375 231.8125 2.90625 C236.68291753 13.54426723 243.16859163 19.61585852 254 24 C257.96 24.66 261.92 25.32 266 26 C266 78.14 266 130.28 266 184 C234.32 184 202.64 184 170 184 C169.6875 142.25 169.6875 142.25 169.61206055 129.13378906 C169.57543775 125.20746973 169.57543775 125.20746973 169.5349884 121.28118896 C169.51898298 119.55092391 169.50859799 117.82060064 169.50288391 116.090271 C169.42940976 96.42053953 166.16997378 80.04584974 151.8515625 65.62890625 C147.84968402 61.93950322 143.90048738 59.33321712 139 57 C138.09507812 56.51660156 137.19015625 56.03320312 136.2578125 55.53515625 C124.14554325 49.8565469 108.94553264 49.90956873 96.3125 54 C89.83381097 56.74336832 84.35842545 60.47199938 79 65 C78.34386719 65.54398437 77.68773437 66.08796875 77.01171875 66.6484375 C67.43663911 75.35305536 61.44211979 88.67493667 60.61018372 101.52496338 C60.39561852 106.78229704 60.3923876 112.03986623 60.390625 117.30078125 C60.37659603 119.01511132 60.36081054 120.72942793 60.34326172 122.44372559 C60.29098897 128.73317666 60.27245191 135.02287178 60.25 141.3125 C60.1675 155.399375 60.085 169.48625 60 184 C27.99 184 -4.02 184 -37 184 C-37 131.86 -37 79.72 -37 26 C-33.04 25.34 -29.08 24.68 -25 24 C-13.28409725 20.02961074 -6.39919935 12.40306454 -0.8125 1.65234375 C-0.544375 1.10707031 -0.27625 0.56179688 0 0 Z " fill="#EAEAE9" transform="translate(321,390)"/>
<path d="M0 0 C10.83358869 6.76546559 19.01631258 17.5430998 22.53374481 29.87061024 C22.99914153 31.99607935 23.13522052 33.87045112 23.15148926 36.04289246 C23.15983292 36.83787643 23.16817657 37.63286041 23.17677307 38.45193481 C23.18095749 39.31495209 23.18514191 40.17796936 23.18945312 41.06713867 C23.20189308 42.44085884 23.20189308 42.44085884 23.21458435 43.84233093 C23.23196589 45.82846042 23.24713787 47.81461019 23.26036072 49.80077171 C23.28139283 52.93928248 23.30841268 56.07769063 23.33703613 59.21614075 C23.40685644 67.00726218 23.46637804 74.79845612 23.52606201 82.58966064 C23.57690056 89.17840822 23.63168097 95.76709928 23.69187927 102.3557682 C23.71854246 105.45633413 23.73929925 108.5569051 23.7598877 111.65751648 C23.7764815 113.54536189 23.79335252 115.43320489 23.81054688 117.32104492 C23.81473129 118.19013489 23.81891571 119.05922485 23.82322693 119.95465088 C23.49066335 123.7875727 23.49066335 123.7875727 25 127 C26.48148265 127.09914399 27.96765887 127.12908118 29.45245361 127.13130188 C30.41423019 127.13531006 31.37600677 127.13931824 32.3669281 127.14344788 C33.43081253 127.14291916 34.49469696 127.14239044 35.59082031 127.1418457 C37.26148308 127.14705734 37.26148308 127.14705734 38.96589661 127.15237427 C41.39407091 127.15974751 43.82225202 127.16508449 46.25043488 127.16866493 C50.09130889 127.17580576 53.9320533 127.1914546 57.77288818 127.21000671 C68.69671758 127.26258717 79.62047961 127.31089394 90.54443359 127.32592773 C97.2176571 127.33520608 103.89051134 127.36529412 110.56362152 127.40724754 C113.11051747 127.41958185 115.65745901 127.4246744 118.20438385 127.42244911 C121.76714149 127.42010253 125.32896933 127.44221629 128.89160156 127.4699707 C130.47528282 127.46006859 130.47528282 127.46006859 132.09095764 127.44996643 C139.24774366 127.54166549 139.24774366 127.54166549 143.1317749 129.90812683 C147.74640563 135.07518202 146 135.93625391 146 145 C33.47 145 -79.06 145 -195 145 C-195 133 -195 133 -193.20574951 129.79022217 C-188.41052184 127.11237012 -184.11847968 127.30510102 -178.70800781 127.35644531 C-177.56771622 127.3475679 -176.42742462 127.33869049 -175.25257874 127.32954407 C-171.48579836 127.30585343 -167.71995002 127.31705423 -163.953125 127.328125 C-161.33948755 127.31755015 -158.72585858 127.30464068 -156.11224365 127.28948975 C-149.93700377 127.25721442 -143.7619976 127.24937353 -137.58668303 127.25106406 C-128.50985591 127.25252665 -119.43314232 127.21904218 -110.35639572 127.18333054 C-103.84541533 127.15789098 -97.33458613 127.13851951 -90.82354736 127.13751221 C-88.47383622 127.1336937 -86.12412512 127.12984989 -83.77441406 127.12597656 C-82.69182816 127.12807632 -81.60924225 127.13017609 -80.49385071 127.13233948 C-79.51524582 127.12977646 -78.53664093 127.12721344 -77.52838135 127.12457275 C-76.672999 127.1246143 -75.81761665 127.12465584 -74.93631363 127.12469864 C-72.99345446 127.21352162 -72.99345446 127.21352162 -72 126 C-71.89072787 123.26918734 -71.84576791 120.56274266 -71.84228516 117.83105469 C-71.83720444 116.97396912 -71.83212372 116.11688354 -71.82688904 115.23382568 C-71.8161563 113.36388942 -71.80754761 111.49394007 -71.80076981 109.62398529 C-71.78899411 106.65463047 -71.7695387 103.68542198 -71.74765015 100.71612549 C-71.68603216 92.2701107 -71.6322215 83.82410592 -71.59863281 75.37792969 C-71.5775484 70.2154327 -71.5421219 65.05319433 -71.49787521 59.89084625 C-71.48380731 57.93111493 -71.47501383 55.97133775 -71.47182083 54.01155853 C-71.44478218 38.98754252 -71.11709796 25.65641364 -62 13 C-61.54753906 12.36449219 -61.09507812 11.72898437 -60.62890625 11.07421875 C-45.73059254 -7.96017072 -20.36096839 -11.12113712 0 0 Z " fill="#E8E8E8" transform="translate(460,454)"/>
<path d="M0 0 C92.07 0 184.14 0 279 0 C279 6.6 279 13.2 279 20 C186.93 20 94.86 20 0 20 C0 13.4 0 6.8 0 0 Z " fill="#E8E9E9" transform="translate(296,281)"/>
<path d="M0 0 C1.07451416 -0.00630432 2.14902832 -0.01260864 3.25610352 -0.019104 C5.00298462 -0.01303131 5.00298462 -0.01303131 6.78515625 -0.00683594 C7.97616943 -0.00874939 9.16718262 -0.01066284 10.39428711 -0.01263428 C12.91618053 -0.01399724 15.43808094 -0.0102931 17.95996094 -0.00195312 C21.83153974 0.00874453 25.70265447 -0.00184499 29.57421875 -0.01464844 C32.01953228 -0.01332686 34.46484552 -0.01076451 36.91015625 -0.00683594 C38.07474365 -0.0108844 39.23933105 -0.01493286 40.43920898 -0.019104 C42.05098022 -0.00964752 42.05098022 -0.00964752 43.6953125 0 C45.11855835 0.00238678 45.11855835 0.00238678 46.57055664 0.00482178 C48.84765625 0.25878906 48.84765625 0.25878906 50.84765625 2.25878906 C51.04588996 4.74735819 51.12046313 7.12463043 51.10644531 9.61425781 C51.10994995 10.37211578 51.11345459 11.12997375 51.11706543 11.91079712 C51.12588755 14.4227202 51.12003199 16.93436298 51.11328125 19.44628906 C51.11462776 21.18741917 51.11656818 22.92854892 51.11907959 24.66967773 C51.1220315 28.32148818 51.11773108 31.9732009 51.10839844 35.625 C51.09700384 40.31285888 51.10356296 45.00048876 51.11554337 49.68833923 C51.12276017 53.28448216 51.12047487 56.88057054 51.11528778 60.47671509 C51.11395079 62.20553616 51.11560074 63.93436214 51.12024689 65.66317749 C51.12530922 68.07669247 51.11760624 70.4898333 51.10644531 72.90332031 C51.11049377 73.62234528 51.11454224 74.34137024 51.11871338 75.08218384 C51.07618521 80.0302601 51.07618521 80.0302601 48.84765625 82.25878906 C46.57055664 82.51275635 46.57055664 82.51275635 43.6953125 82.51757812 C42.62079834 82.52388245 41.54628418 82.53018677 40.43920898 82.53668213 C39.27462158 82.53263367 38.11003418 82.52858521 36.91015625 82.52441406 C35.71914307 82.52632751 34.52812988 82.52824097 33.30102539 82.5302124 C30.77913197 82.53157536 28.25723156 82.52787122 25.73535156 82.51953125 C21.86377276 82.50883359 17.99265803 82.51942312 14.12109375 82.53222656 C11.67578022 82.53090499 9.23046698 82.52834264 6.78515625 82.52441406 C5.03827515 82.53048676 5.03827515 82.53048676 3.25610352 82.53668213 C1.64433228 82.52722565 1.64433228 82.52722565 0 82.51757812 C-1.42324585 82.51519135 -1.42324585 82.51519135 -2.87524414 82.51275635 C-5.15234375 82.25878906 -5.15234375 82.25878906 -7.15234375 80.25878906 C-7.35057746 77.77021994 -7.42515063 75.3929477 -7.41113281 72.90332031 C-7.41463745 72.14546234 -7.41814209 71.38760437 -7.42175293 70.60678101 C-7.43057505 68.09485792 -7.42471949 65.58321514 -7.41796875 63.07128906 C-7.41931526 61.33015895 -7.42125568 59.58902921 -7.42376709 57.84790039 C-7.426719 54.19608994 -7.42241858 50.54437723 -7.41308594 46.89257812 C-7.40169134 42.20471925 -7.40825046 37.51708936 -7.42023087 32.82923889 C-7.42744767 29.23309596 -7.42516237 25.63700758 -7.41997528 22.04086304 C-7.41863829 20.31204196 -7.42028824 18.58321598 -7.42493439 16.85440063 C-7.42999672 14.44088565 -7.42229374 12.02774483 -7.41113281 9.61425781 C-7.41518127 8.89523285 -7.41922974 8.17620789 -7.42340088 7.43539429 C-7.3704115 1.27017455 -6.04668012 0.01014027 0 0 Z " fill="#707478" transform="translate(518.15234375,447.7412109375)"/>
<path d="M0 0 C1.07458969 -0.00637985 2.14917938 -0.0127597 3.2563324 -0.01933289 C4.42608109 -0.02044571 5.59582977 -0.02155853 6.80102539 -0.02270508 C7.99345352 -0.02603348 9.18588165 -0.02936188 10.41444397 -0.03279114 C12.94230767 -0.03786549 15.47017809 -0.04019931 17.99804688 -0.04003906 C21.87844818 -0.04222493 25.7585651 -0.06037389 29.63891602 -0.0793457 C32.08878483 -0.08227956 34.538655 -0.08426441 36.98852539 -0.08520508 C38.74011208 -0.09598335 38.74011208 -0.09598335 40.52708435 -0.10697937 C42.14369713 -0.10236443 42.14369713 -0.10236443 43.79296875 -0.09765625 C45.22073891 -0.09979378 45.22073891 -0.09979378 46.67735291 -0.10197449 C48.96118164 0.14526367 48.96118164 0.14526367 50.96118164 2.14526367 C51.15941535 4.63383279 51.23398852 7.01110504 51.2199707 9.50073242 C51.22347534 10.25859039 51.22697998 11.01644836 51.23059082 11.79727173 C51.23941294 14.30919481 51.23355738 16.82083759 51.22680664 19.33276367 C51.22815315 21.07389378 51.23009357 22.81502352 51.23260498 24.55615234 C51.23555689 28.20796279 51.23125647 31.85967551 51.22192383 35.51147461 C51.21052923 40.19933349 51.21708835 44.88696337 51.22906876 49.57481384 C51.23628556 53.17095677 51.23400026 56.76704515 51.22881317 60.3631897 C51.22747618 62.09201077 51.22912613 63.82083675 51.23377228 65.5496521 C51.23883461 67.96316708 51.23113163 70.37630791 51.2199707 72.78979492 C51.22401917 73.50881989 51.22806763 74.22784485 51.23223877 74.96865845 C51.1897106 79.91673471 51.1897106 79.91673471 48.96118164 82.14526367 C46.67062378 82.38577271 46.67062378 82.38577271 43.77709961 82.37231445 C42.69613007 82.37216339 41.61516052 82.37201233 40.50143433 82.37185669 C39.33057281 82.36153412 38.1597113 82.35121155 36.95336914 82.34057617 C35.75761261 82.33774628 34.56185608 82.33491638 33.3298645 82.33200073 C29.49853645 82.32077672 25.66743942 82.29566798 21.83618164 82.27026367 C19.24373709 82.26023675 16.65128889 82.2511104 14.05883789 82.24291992 C7.69287322 82.22083014 1.32704393 82.18733073 -5.03881836 82.14526367 C-6.55025172 79.12239694 -6.17740643 75.99736092 -6.16821289 72.68212891 C-6.16996521 71.91291107 -6.17171753 71.14369324 -6.17352295 70.35116577 C-6.17793356 67.80204022 -6.17500654 65.25298372 -6.17163086 62.70385742 C-6.17230406 60.93791185 -6.17327421 59.17196637 -6.17453003 57.40602112 C-6.17600587 53.70296345 -6.17385582 49.99992987 -6.16918945 46.296875 C-6.16348807 41.53947504 -6.16677448 36.78213144 -6.17276192 32.02473354 C-6.17636703 28.37803214 -6.17522925 24.73134421 -6.17263412 21.08464241 C-6.17196493 19.32987524 -6.172793 17.57510687 -6.17511368 15.82034111 C-6.17763985 13.3731955 -6.17380033 10.92614257 -6.16821289 8.47900391 C-6.17023712 7.74703293 -6.17226135 7.01506195 -6.17434692 6.26091003 C-6.14914995 0.33476233 -5.83789818 0.0233982 0 0 Z " fill="#6E7276" transform="translate(309.038818359375,447.854736328125)"/>
<path d="M0 0 C17.16 0 34.32 0 52 0 C53.32 8.105625 54.64 16.21125 56 24.5625 C56.41765625 27.10912354 56.8353125 29.65574707 57.265625 32.27954102 C57.59418618 34.31259232 57.92233853 36.34570975 58.25 38.37890625 C58.42273438 39.42268433 58.59546875 40.4664624 58.7734375 41.54187012 C58.93585938 42.55616089 59.09828125 43.57045166 59.265625 44.61547852 C59.47880371 45.92452904 59.47880371 45.92452904 59.69628906 47.26002502 C60.05414624 50.48848866 60 53.75176368 60 57 C37.56 57 15.12 57 -8 57 C-8 51.47214742 -7.83450221 46.91633769 -7.01171875 41.5625 C-6.90785355 40.87929688 -6.80398834 40.19609375 -6.69697571 39.4921875 C-6.47698436 38.05311543 -6.25414332 36.61447633 -6.02856445 35.17626953 C-5.69280218 33.03383224 -5.36610801 30.89017309 -5.04101562 28.74609375 C-3.56074596 19.11529534 -1.7979808 9.58923095 0 0 Z " fill="#E9E9E8" transform="translate(410,308)"/>
<path d="M0 0 C17.49 0 34.98 0 53 0 C55.95905894 5.91811789 58.7156926 11.47672982 61.15625 17.5546875 C61.42586548 18.22235138 61.69548096 18.89001526 61.9732666 19.57791138 C62.81940377 21.67539931 63.65993261 23.77507475 64.5 25.875 C65.3385795 27.96052341 66.17834337 30.04556566 67.01855469 32.13043213 C67.56463104 33.4865352 68.10957059 34.84309664 68.65332031 36.20013428 C70.73454715 41.38420859 72.90932061 46.52491824 75.13476562 51.64892578 C76 54 76 54 76 57 C53.89 57 31.78 57 9 57 C7.515 47.96625 6.03 38.9325 4.5 29.625 C4.03013672 26.77182129 3.56027344 23.91864258 3.07617188 20.97900391 C2.70690484 18.72821084 2.33775602 16.47739837 1.96875 14.2265625 C1.67726074 12.46058716 1.67726074 12.46058716 1.37988281 10.65893555 C1.1971582 9.54252686 1.01443359 8.42611816 0.82617188 7.27587891 C0.66628784 6.30325104 0.50640381 5.33062317 0.3416748 4.32852173 C0 2 0 2 0 0 Z " fill="#E9E9E8" transform="translate(469,308)"/>
<path d="M0 0 C17.16 0 34.32 0 52 0 C50.875 12.375 50.875 12.375 50.24389648 16.47143555 C50.03089905 17.8703302 50.03089905 17.8703302 49.81359863 19.29748535 C49.66757202 20.23443237 49.52154541 21.17137939 49.37109375 22.13671875 C49.16619324 23.47651794 49.16619324 23.47651794 48.95715332 24.84338379 C48.45424837 28.12531665 47.94555121 31.40635985 47.4375 34.6875 C46.303125 42.050625 45.16875 49.41375 44 57 C21.89 57 -0.22 57 -23 57 C-19.62510599 45.7503533 -19.62510599 45.7503533 -18.03881836 42.08862305 C-17.6851268 41.26464523 -17.33143524 40.44066742 -16.96702576 39.59172058 C-16.59505569 38.74031998 -16.22308563 37.88891937 -15.83984375 37.01171875 C-15.44930313 36.10549271 -15.05876251 35.19926666 -14.65638733 34.26557922 C-13.42191896 31.40395599 -12.17995848 28.54566184 -10.9375 25.6875 C-9.69318817 22.81076668 -8.45041045 19.93337461 -7.207901 17.05586243 C-6.43802529 15.27447817 -5.66679822 13.49367715 -4.89402771 11.71354675 C-4.54348831 10.90532974 -4.19294891 10.09711273 -3.83178711 9.2644043 C-3.37236977 8.20711372 -3.37236977 8.20711372 -2.90367126 7.12846375 C-1.90098382 4.76678207 -0.95288473 2.38221182 0 0 Z " fill="#E9E9E9" transform="translate(350,308)"/>
<path d="M0 0 C2.90505436 -0.15637866 5.76627726 -0.1347049 8.67469788 -0.06214905 C10.26644585 -0.05153694 10.26644585 -0.05153694 11.89035034 -0.04071045 C15.28402315 -0.01269246 18.67605393 0.05006264 22.06922913 0.1136322 C24.36803345 0.13870536 26.66686359 0.16152023 28.9657135 0.18199158 C34.60494686 0.2371583 40.24322071 0.32085866 45.88172913 0.4261322 C44.07684137 6.23622775 41.72036837 11.79690535 39.38172913 17.40660095 C38.94538147 18.4564064 38.50903381 19.50621185 38.0594635 20.58782959 C37.13932447 22.79960022 36.218077 25.01091001 35.29579163 27.2217865 C33.88301415 30.61054988 32.47594077 34.00164397 31.06922913 37.39292908 C30.1737411 39.54346352 29.27791924 41.69385899 28.38172913 43.84410095 C27.96085022 44.85973618 27.53997131 45.8753714 27.1063385 46.92178345 C26.71252991 47.8631868 26.31872131 48.80459015 25.91297913 49.77452087 C25.56815491 50.60247665 25.22333069 51.43043243 24.86805725 52.28347778 C23.88172913 54.4261322 23.88172913 54.4261322 21.88172913 57.4261322 C19.36338806 57.78689575 19.36338806 57.78689575 16.14686584 57.76670837 C14.94577179 57.76648178 13.74467773 57.76625519 12.50718689 57.76602173 C11.2050827 57.75053787 9.90297852 57.73505402 8.56141663 57.71910095 C7.21906507 57.71350636 5.8767074 57.70923562 4.53434753 57.70623779 C0.99961971 57.69477806 -2.53473885 57.66530179 -6.06932068 57.63212585 C-9.67543034 57.60144892 -13.28159962 57.58773758 -16.88780212 57.57261658 C-23.9647762 57.54043272 -31.04149944 57.48922314 -38.11827087 57.4261322 C-37.33986609 56.00718153 -36.55923407 54.58945255 -35.7776947 53.17222595 C-35.34322525 52.3825946 -34.9087558 51.59296326 -34.46112061 50.77940369 C-32.42107656 47.2043369 -30.1251459 43.82391476 -27.80577087 40.4261322 C-22.61035811 32.72598184 -17.55827835 24.93979739 -12.55577087 17.1136322 C-11.86507507 16.03404236 -11.17437927 14.95445251 -10.4627533 13.84214783 C-6.85756046 8.44448464 -6.85756046 8.44448464 -4.08213806 2.62388611 C-2.11827087 0.4261322 -2.11827087 0.4261322 0 0 Z " fill="#E9E9E9" transform="translate(296.11827087402344,307.57386779785156)"/>
<path d="M0 0 C39.42811614 -3.70869198 39.42811614 -3.70869198 49.45751953 1.95117188 C54.57000781 7.03686202 57.21395041 13.23603537 59.74023438 19.90429688 C61.68800507 24.69067913 64.50353232 28.78983047 67.375 33.0625 C68.34119795 34.58913127 69.30230135 36.11900102 70.2578125 37.65234375 C73.26292363 42.43223566 76.32303594 47.1762347 79.41162109 51.90258789 C82 55.89194357 82 55.89194357 82 57 C62.53 57 43.06 57 23 57 C18.49878903 47.99757806 18.49878903 47.99757806 16.80175781 43.80908203 C16.23161957 42.40820847 16.23161957 42.40820847 15.64996338 40.97903442 C15.25500671 39.99853119 14.86005005 39.01802795 14.453125 38.0078125 C14.03705994 36.98066132 13.62099487 35.95351013 13.19232178 34.89523315 C12.32011304 32.73940536 11.44955334 30.58290973 10.58056641 28.42578125 C9.24496673 25.11251379 7.9021129 21.80225036 6.55859375 18.4921875 C5.71050256 16.39340487 4.86283123 14.29445252 4.015625 12.1953125 C3.61257141 11.20266388 3.20951782 10.21001526 2.79425049 9.18728638 C2.42676697 8.27228363 2.05928345 7.35728088 1.68066406 6.41455078 C1.35519592 5.60817169 1.02972778 4.8017926 0.69439697 3.97097778 C0 2 0 2 0 0 Z " fill="#E9E9E8" transform="translate(531,308)"/>
<path d="M0 0 C14.19 0 28.38 0 43 0 C43.165 3.980625 43.33 7.96125 43.5 12.0625 C43.57283203 13.30394775 43.64566406 14.54539551 43.72070312 15.82446289 C43.87972939 23.76487517 43.87972939 23.76487517 41.59008789 26.97949219 C39.69140625 28.61328125 39.69140625 28.61328125 37.49072266 30.19995117 C34.53654021 32.33494305 31.96879793 34.77724449 29.37109375 37.3203125 C28.88746368 37.79152023 28.40383362 38.26272797 27.9055481 38.74821472 C26.91597136 39.71460767 25.92818053 40.68283259 24.94213867 41.65283203 C23.92900478 42.64410209 22.9096423 43.62904145 21.88452148 44.60791016 C20.38627675 46.03952935 18.90843306 47.48964047 17.43359375 48.9453125 C16.55759521 49.79625488 15.68159668 50.64719727 14.77905273 51.52392578 C12.68519629 53.87576227 12.68519629 53.87576227 13.22290039 56.81591797 C13.47934326 57.53666504 13.73578613 58.25741211 14 59 C21.96868191 57.52109615 27.90274996 49.18645594 33.4375 43.6875 C34.0651123 43.06464111 34.69272461 42.44178223 35.33935547 41.80004883 C35.9273291 41.2098999 36.51530273 40.61975098 37.12109375 40.01171875 C37.91664673 39.21447388 37.91664673 39.21447388 38.72827148 38.40112305 C40.10943585 37.00611595 40.10943585 37.00611595 41 35 C41.66 35 42.32 35 43 35 C43 45.89 43 56.78 43 68 C28.81 68 14.62 68 0 68 C-1.2621433 43.0095626 -1.2621433 43.0095626 1.9453125 38.29296875 C4.48993747 35.8222702 7.01503144 33.90694394 10 32 C11.33243831 30.8774144 12.64660768 29.73262277 13.9375 28.5625 C14.56398438 28.01980469 15.19046875 27.47710937 15.8359375 26.91796875 C18.62300444 24.44784263 21.36489588 21.94249598 24.0625 19.375 C25.02285156 18.47523438 25.98320312 17.57546875 26.97265625 16.6484375 C29.32538694 14.17845386 29.32538694 14.17845386 28.80859375 11.1640625 C28.54175781 10.44992187 28.27492188 9.73578125 28 9 C23.1209416 9.4340233 21.08391856 11.45772258 17.734375 14.91015625 C17.01607513 15.64050331 17.01607513 15.64050331 16.28326416 16.38560486 C14.76240481 17.93536743 13.25586713 19.49817828 11.75 21.0625 C10.22729185 22.62766551 8.7017811 24.19000179 7.17388916 25.75010681 C5.79523835 27.16039616 4.42428884 28.57820168 3.05371094 29.99633789 C1 32 1 32 0 32 C0 21.44 0 10.88 0 0 Z " fill="#E6E6E5" transform="translate(310,455)"/>
<path d="M0 0 C14.19 0 28.38 0 43 0 C44.98920419 21.53021009 44.98920419 21.53021009 41.54101562 27.54492188 C37.69843573 32.11024408 33.04741801 35.68060493 28.28417969 39.23876953 C24.74539758 41.96736874 21.5983625 45.03697152 18.4375 48.1875 C17.88425049 48.70473633 17.33100098 49.22197266 16.76098633 49.75488281 C14.3387722 52.11424819 13.06595283 53.44432844 12.66015625 56.86328125 C12.77230469 57.56839844 12.88445313 58.27351562 13 59 C15.25818275 59.44188056 15.25818275 59.44188056 18 59 C20.11747522 57.30662032 21.85787169 55.70292493 23.703125 53.75 C24.22638367 53.21729492 24.74964233 52.68458984 25.28875732 52.13574219 C26.9547043 50.43523974 28.60263281 48.7184904 30.25 47 C31.91501302 45.28511332 33.58350193 43.57371357 35.25408936 41.86425781 C36.29201277 40.7998118 37.32601256 39.73152378 38.35577393 38.65917969 C39.55194488 37.42123538 40.77342995 36.20783153 42 35 C42.33 35 42.66 35 43 35 C43 45.89 43 56.78 43 68 C28.81 68 14.62 68 0 68 C-0.73551135 53.36332422 -0.73551135 53.36332422 -0.58984375 48.3125 C-0.56071899 46.67861328 -0.56071899 46.67861328 -0.53100586 45.01171875 C0.10653069 41.39578731 1.32680456 39.72449012 3.8125 37.0625 C5.24014309 36.14591176 6.66984015 35.23220449 8.11425781 34.34228516 C12.56884545 31.17147692 16.31948301 27.09297665 20.1875 23.25 C21.06188721 22.41992432 21.93627441 21.58984863 22.8371582 20.73461914 C24.05278442 19.54340454 24.05278442 19.54340454 25.29296875 18.328125 C26.0305542 17.6155957 26.76813965 16.90306641 27.52807617 16.16894531 C29.30261598 14.05097426 29.30261598 14.05097426 28.73168945 11.22949219 C28.49023193 10.49375977 28.24877441 9.75802734 28 9 C19.12470807 10.66290873 12.09479974 20.83351279 6.01635742 27.02001953 C5.06660034 27.98270752 5.06660034 27.98270752 4.09765625 28.96484375 C3.52539307 29.5487085 2.95312988 30.13257324 2.36352539 30.73413086 C1 32 1 32 0 32 C0 21.44 0 10.88 0 0 Z " fill="#E6E6E6" transform="translate(518,455)"/>
<path d="M0 0 C2.26921536 -0.13489391 4.5407067 -0.23193995 6.8125 -0.3125 C8.70935547 -0.39951172 8.70935547 -0.39951172 10.64453125 -0.48828125 C14 0 14 0 15.88671875 2.26953125 C16.81033146 4.53481294 17.4426778 6.63130161 18 9 C18.61974197 9.00586624 19.23948395 9.01173248 19.87800598 9.01777649 C26.31814421 9.0816235 32.75777868 9.16602033 39.19750977 9.26245117 C41.60206467 9.29574176 44.00669851 9.32376067 46.41137695 9.34643555 C49.86443779 9.3799051 53.31677261 9.43221797 56.76953125 9.48828125 C58.38683891 9.49786613 58.38683891 9.49786613 60.03681946 9.50764465 C61.03763046 9.52743881 62.03844147 9.54723297 63.06958008 9.56762695 C64.39195427 9.58428154 64.39195427 9.58428154 65.74104309 9.60127258 C68 10 68 10 69.81987 11.29826355 C71.55288564 13.79725593 70.93820609 15.91394711 70.453125 18.79345703 C69.71947052 22.36606973 68.90856601 25.90528504 68 29.4375 C67.73316406 30.51547852 67.73316406 30.51547852 67.4609375 31.61523438 C66.13149889 36.86850111 66.13149889 36.86850111 65 38 C62.04294679 38.08868299 59.10934944 38.11520296 56.15234375 38.09765625 C54.82270348 38.09553383 54.82270348 38.09553383 53.46620178 38.09336853 C50.62326746 38.08775215 47.78041069 38.07519691 44.9375 38.0625 C43.01497509 38.05748711 41.09244896 38.05292384 39.16992188 38.04882812 C34.44658451 38.03777741 29.72330542 38.02050183 25 38 C25.33 39.32 25.66 40.64 26 42 C27.8097229 42.03758423 27.8097229 42.03758423 29.65600586 42.07592773 C34.11575661 42.16982523 38.57534513 42.27008833 43.03491211 42.37231445 C44.96814185 42.41573041 46.90141159 42.45740042 48.8347168 42.49731445 C51.60738202 42.55485631 54.37984457 42.6185962 57.15234375 42.68359375 C58.02213364 42.70030624 58.89192352 42.71701874 59.78807068 42.73423767 C65.88612829 42.88612829 65.88612829 42.88612829 67 44 C67.125 46.5 67.125 46.5 67 49 C65.46189934 50.53810066 64.03761244 50.14214281 61.89501953 50.16113281 C60.58828781 50.17554413 60.58828781 50.17554413 59.25515747 50.19024658 C57.83334671 50.1966214 57.83334671 50.1966214 56.3828125 50.203125 C54.93066849 50.21167511 54.93066849 50.21167511 53.44918823 50.22039795 C51.39631244 50.22986383 49.34342135 50.2363882 47.29052734 50.24023438 C44.14523865 50.24993756 41.00060382 50.28094511 37.85546875 50.3125 C35.86458723 50.31902991 33.87370102 50.32428043 31.8828125 50.328125 C30.93898712 50.3404718 29.99516174 50.3528186 29.0227356 50.36553955 C28.14527679 50.36253845 27.26781799 50.35953735 26.36376953 50.35644531 C25.5917923 50.36009094 24.81981506 50.36373657 24.02444458 50.36749268 C21.42504981 49.89563064 20.59016445 49.08108519 19 47 C18.12446877 44.31221623 17.39291984 41.71357484 16.73828125 38.97265625 C16.54276169 38.18733017 16.34724213 37.40200409 16.14579773 36.59288025 C15.73501912 34.9340003 15.3293586 33.27384576 14.9284668 31.61254883 C14.31495043 29.07264455 13.68525075 26.53718502 13.05273438 24.00195312 C12.65529054 22.38825684 12.25877494 20.7743316 11.86328125 19.16015625 C11.6758284 18.4027565 11.48837555 17.64535675 11.29524231 16.86500549 C10.4750683 13.44602726 10 10.5394228 10 7 C9.06027344 7.03480469 9.06027344 7.03480469 8.1015625 7.0703125 C6.87566406 7.09738281 6.87566406 7.09738281 5.625 7.125 C4.81289063 7.14820313 4.00078125 7.17140625 3.1640625 7.1953125 C1 7 1 7 -1 5 C-0.625 2.375 -0.625 2.375 0 0 Z " fill="#6E7175" transform="translate(397,494)"/>
<path d="M0 0 C23.1 0 46.2 0 70 0 C68.98429598 12.1884483 67.04856859 20.15579345 58.0625 28.5 C49.10871463 35.01184391 39.80739845 36.71137306 29 36 C20.44596963 34.60683544 12.41252218 29.30545394 7.07421875 22.5703125 C2.49398604 15.27376312 0 8.61974431 0 0 Z " fill="#E9EAE9" transform="translate(401,373)"/>
<path d="M0 0 C22.11 0 44.22 0 67 0 C65.57793331 12.79860022 62.95874571 21.41900558 53 30 C44.31847163 36.31269334 35.37030424 37.5436317 25 36 C15.02009185 32.77153936 7.92422364 27.07105893 3.125 17.8125 C0.1222271 11.49872255 0 7.35950938 0 0 Z " fill="#E9EAE9" transform="translate(326,373)"/>
<path d="M0 0 C22.11 0 44.22 0 67 0 C65.90235138 12.07413487 63.44365002 21.01267389 54.31640625 29.30859375 C45.91897189 35.44027854 37.22818695 37.17156839 27 36 C18.92359091 34.57623365 12.39265776 30.11701607 7.20703125 23.82421875 C1.59469908 15.80066239 0 10.08811237 0 0 Z " fill="#E9E9E9" transform="translate(480,373)"/>
<path d="M0 0 C20.46 0 40.92 0 62 0 C60.94128359 10.58716415 59.03457165 20.50106646 51 28 C42.87874518 33.55735454 35.97407206 37.11924956 26 36 C18.39661776 34.23643773 11.97255258 31.12340536 7 25 C1.73918265 16.13242141 0 10.57442137 0 0 Z " fill="#E9E9E9" transform="translate(255,373)"/>
<path d="M0 0 C20.13 0 40.26 0 61 0 C61 12.06613104 60.16693331 19.58476178 52.0703125 28.2421875 C44.74911727 34.45829665 36.41068519 36.75847313 27 36 C19.06373733 34.27217898 11.45840698 29.48698188 6.6875 22.9375 C2.4408926 15.97022491 0 8.13454201 0 0 Z " fill="#E9E9E9" transform="translate(555,373)"/>
<path d="M0 0 C14.19 0 28.38 0 43 0 C41 13 41 13 40 14 C37.26105915 14.08858646 34.5474673 14.11523479 31.80859375 14.09765625 C30.98875504 14.0962413 30.16891632 14.09482635 29.32423401 14.09336853 C26.69528618 14.08775289 24.06642227 14.07519779 21.4375 14.0625 C19.65950643 14.05748701 17.88151154 14.05292376 16.10351562 14.04882812 C11.73564455 14.03777839 7.36783652 14.02050331 3 14 C2.49528803 12.23050388 1.99639315 10.45934777 1.5 8.6875 C1.2215625 7.70136719 0.943125 6.71523438 0.65625 5.69921875 C0 3 0 3 0 0 Z " fill="#E3E4E3" transform="translate(417,511)"/>
<path d="M0 0 C1.875 1.0625 1.875 1.0625 3 3 C3.375 6.5625 3.375 6.5625 3 10 C-0.47042703 12.31361802 -1.91834173 12.51020728 -6 12 C-8.35210784 9.88310295 -8.91810953 8.55958485 -9.375 5.4375 C-9 3 -9 3 -7.875 1.1875 C-5.12844028 -0.55198782 -3.18153026 -0.39769128 0 0 Z " fill="#6E7175" transform="translate(427,548)"/>
<path d="M0 0 C1.875 1.125 1.875 1.125 3 3 C3.39365568 6.14924548 3.52854531 8.11909116 1.875 10.875 C-0.88090884 12.52854531 -2.85075452 12.39365568 -6 12 C-7.875 10.875 -7.875 10.875 -9 9 C-9.39365568 5.85075452 -9.52854531 3.88090884 -7.875 1.125 C-5.11909116 -0.52854531 -3.14924548 -0.39365568 0 0 Z " fill="#727478" transform="translate(456,548)"/>
</svg>
