<?xml version="1.0" encoding="UTF-8"?>
<svg xmlns="http://www.w3.org/2000/svg" width="512" height="512" viewBox="0 0 512 512" style="background-color:transparent;">
<g>
<path d="M 510.61 244.75 C510.95,246.54 511.40,248.00 511.61,248.00 C511.83,248.00 512.00,192.20 512.00,124.00 L 512.00 512.00 L 0.00 512.00 L 0.00 0.00 L 512.00 0.00 L 384.75 0.13 C314.76,0.20 259.98,0.61 263.00,1.03 C280.21,3.42 293.82,14.80 299.76,31.77 C301.24,35.98 301.48,45.80 301.96,120.65 C302.48,201.50 302.57,204.87 304.40,206.89 C305.44,208.04 307.92,209.44 309.90,209.99 C312.16,210.62 343.36,210.99 393.85,210.99 C395.76,210.99 397.63,210.99 399.46,210.99 C468.99,211.00 478.06,211.00 485.48,214.50 C486.78,215.11 488.04,215.84 489.57,216.69 C499.14,222.05 508.75,234.85 510.61,244.75 ZM 0.13 127.25 C0.21,197.24 0.58,252.48 0.96,250.00 C3.81,231.55 15.80,217.69 33.28,212.61 C38.15,211.19 48.47,210.99 119.65,210.94 C179.54,210.90 201.41,210.58 204.00,209.69 C206.38,208.88 208.06,207.38 209.25,205.00 C210.87,201.75 211.00,195.59 211.00,119.93 C211.00,49.31 211.21,37.67 212.54,33.16 C217.59,16.18 231.84,3.79 249.50,1.03 C252.25,0.60 197.24,0.19 127.25,0.12 L 0.00 0.00 ZM 0.15 384.75 L 0.00 512.00 L 124.75 511.95 C245.75,511.89 249.33,511.84 244.00,510.11 C240.98,509.14 236.61,507.36 234.30,506.17 C228.71,503.29 220.05,494.66 216.71,488.63 C215.82,487.03 215.07,485.74 214.44,484.39 C211.00,477.05 211.00,468.10 211.00,399.45 C211.00,397.13 211.00,394.74 211.00,392.29 C211.00,307.40 210.94,306.01 206.85,303.37 C206.11,302.89 167.70,302.27 121.50,301.99 C26.90,301.41 33.29,301.94 20.63,293.54 C9.50,286.16 2.37,274.35 0.67,260.50 C0.66,260.48 0.66,260.46 0.66,260.46 C0.46,260.46 0.23,315.77 0.15,384.75 ZM 269.00 510.11 C263.67,511.84 267.23,511.89 387.75,511.95 L 512.00 512.00 L 511.95 387.75 C511.89,267.23 511.84,263.67 510.11,269.00 C507.40,277.41 504.68,282.04 499.19,287.61 C493.64,293.25 487.39,297.26 480.23,299.76 C476.02,301.24 466.19,301.48 391.28,301.96 L 307.05 302.50 L 302.50 307.05 L 301.96 391.28 C301.48,466.19 301.24,476.02 299.76,480.23 C297.26,487.39 293.25,493.64 287.61,499.19 C282.04,504.68 277.41,507.40 269.00,510.11 Z" fill="rgb(0,0,0)"/>
<path d="M 0.86 249.21 C1.74,244.55 3.21,240.18 5.18,236.18 C3.16,240.40 1.73,245.04 0.96,250.00 C0.93,250.23 0.89,249.96 0.86,249.21 ZM 291.74 0.49 C273.44,0.64 262.88,0.84 264.00,1.03 C268.53,1.84 272.78,3.23 276.69,5.16 C272.48,3.11 267.88,1.71 263.00,1.03 C261.60,0.83 272.59,0.64 291.74,0.49 ZM 223.00 0.50 C240.65,0.66 250.72,0.84 249.50,1.03 C246.03,1.57 242.70,2.49 239.53,3.73 C242.37,2.59 245.37,1.68 248.50,1.04 C249.45,0.85 239.81,0.66 223.00,0.50 ZM 6.35 278.13 C9.80,284.30 14.63,289.56 20.63,293.54 C14.36,289.38 9.75,284.47 6.35,278.13 ZM 0.59 262.27 C0.62,261.08 0.64,260.46 0.66,260.46 C0.66,260.46 0.66,260.48 0.67,260.50 C0.83,261.80 1.03,263.08 1.29,264.34 C1.06,263.42 0.85,262.47 0.65,261.50 C0.65,261.49 0.64,261.48 0.64,261.48 C0.63,261.48 0.61,261.75 0.59,262.27 ZM 0.13 127.25 L 0.00 0.00 L 0.14 126.25 C0.15,135.28 0.16,144.08 0.17,152.55 C0.16,144.40 0.14,135.94 0.13,127.25 Z" fill="rgb(70,70,70)"/>
<path d="M 0.59 262.27 C0.61,261.75 0.63,261.48 0.64,261.48 C0.64,261.48 0.65,261.49 0.65,261.50 C0.85,262.47 1.06,263.42 1.29,264.34 C2.28,269.28 3.99,273.92 6.35,278.13 C6.57,278.54 6.80,278.95 7.03,279.35 C5.06,276.21 3.53,272.88 2.54,269.49 C1.75,266.77 0.91,264.49 0.57,264.07 C0.58,263.37 0.59,262.77 0.59,262.27 ZM 31.99 299.49 C35.54,300.36 40.58,300.87 49.08,301.20 C37.92,300.89 34.74,300.46 32.64,299.73 C32.42,299.65 32.21,299.57 31.99,299.49 ZM 0.80 247.53 C1.21,246.68 1.89,244.75 2.54,242.51 C3.55,239.05 5.16,235.60 7.26,232.33 C6.51,233.57 5.81,234.86 5.18,236.18 C3.21,240.18 1.74,244.55 0.86,249.21 C0.84,248.79 0.82,248.23 0.80,247.53 ZM 22.92 216.99 C23.32,216.75 23.72,216.51 24.13,216.28 C27.14,214.56 29.07,213.41 33.23,212.62 C29.53,213.70 26.09,215.17 22.92,216.99 ZM 265.58 0.88 L 270.07 2.45 C270.76,2.69 271.45,2.94 272.12,3.21 C269.53,2.26 266.82,1.54 264.00,1.03 C263.70,0.98 264.25,0.93 265.58,0.88 ZM 243.56 2.30 C245.10,1.76 246.39,1.25 247.18,0.89 C248.28,0.94 248.74,0.99 248.50,1.04 C246.81,1.38 245.17,1.81 243.56,2.30 ZM 60.88 211.13 C73.90,210.97 92.50,210.96 119.65,210.94 C91.91,210.96 73.42,211.00 60.88,211.13 ZM 290.32 15.50 C294.41,20.05 297.56,25.47 299.76,31.77 C297.58,25.54 294.37,20.06 290.32,15.50 Z" fill="rgb(130,130,130)"/>
<path d="M 0.00 388.00 C0.00,319.80 0.21,264.00 0.47,264.00 C0.73,264.00 1.66,266.47 2.54,269.49 C6.37,282.68 18.40,294.76 32.64,299.73 C37.01,301.25 46.02,301.47 121.50,301.96 C167.70,302.26 206.11,302.89 206.85,303.37 C210.94,306.01 211.00,307.40 211.00,392.29 C211.00,480.86 210.83,478.03 216.71,488.63 C220.05,494.66 228.71,503.29 234.30,506.17 C236.61,507.36 240.98,509.14 244.00,510.11 C249.33,511.84 245.75,511.89 124.75,511.95 L 0.00 512.00 L 0.00 388.00 ZM 269.00 510.11 C277.41,507.40 282.04,504.68 287.61,499.19 C293.25,493.64 297.26,487.39 299.76,480.23 C301.24,476.02 301.48,466.19 301.96,391.28 L 302.50 307.05 L 304.78 304.78 L 307.05 302.50 L 391.28 301.96 C466.19,301.48 476.02,301.24 480.23,299.76 C487.39,297.26 493.64,293.25 499.19,287.61 C504.68,282.04 507.40,277.41 510.11,269.00 C511.84,263.67 511.89,267.23 511.95,387.75 L 512.00 512.00 L 387.75 511.95 C267.23,511.89 263.67,511.84 269.00,510.11 ZM 0.00 124.00 L 0.00 0.00 L 124.00 0.00 C192.20,0.00 248.00,0.18 248.00,0.41 C248.00,0.63 245.32,1.72 242.04,2.83 C227.67,7.68 216.79,18.87 212.54,33.16 C211.21,37.67 211.00,49.31 211.00,119.93 C211.00,195.59 210.87,201.75 209.25,205.00 C208.06,207.38 206.38,208.88 204.00,209.69 C201.41,210.58 179.54,210.90 119.65,210.94 C32.47,211.00 33.48,210.95 24.13,216.28 C13.84,222.14 5.52,232.26 2.54,242.51 C1.66,245.53 0.73,248.00 0.47,248.00 C0.21,248.00 0.00,192.20 0.00,124.00 ZM 510.61 244.75 C508.75,234.85 499.14,222.05 489.57,216.69 C479.15,210.87 481.34,211.00 393.85,210.99 C343.36,210.99 312.16,210.62 309.90,209.99 C307.92,209.44 305.44,208.04 304.40,206.89 C302.57,204.87 302.48,201.50 301.96,120.65 C301.48,45.80 301.24,35.98 299.76,31.77 C294.74,17.42 284.80,7.60 270.07,2.45 L 263.50 0.15 L 387.75 0.07 L 512.00 0.00 L 512.00 124.00 C512.00,192.20 511.83,248.00 511.61,248.00 C511.40,248.00 510.95,246.54 510.61,244.75 Z" fill="none"/>
</g>
</svg>