<?xml version="1.0" encoding="UTF-8"?>
<svg xmlns="http://www.w3.org/2000/svg" width="512" height="512" viewBox="0 0 512 512" style="background-color:transparent;">
<g>
<path d="M 0.00 0.00 L 512.00 0.00 L 512.00 512.00 L 0.00 512.00 ZM 321.93 510.25 C318.64,511.93 321.31,511.99 389.50,511.86 C428.55,511.79 459.38,511.53 458.00,511.28 C456.62,511.04 452.30,509.32 448.39,507.45 C440.89,503.87 436.53,500.02 422.31,484.38 L 414.12 475.37 L 445.32 444.18 C462.47,427.03 477.02,413.00 477.64,413.00 C478.26,413.00 484.49,419.19 491.49,426.75 C503.77,440.01 507.90,446.01 510.60,454.50 C511.63,457.76 511.88,416.12 511.93,229.25 L 512.00 0.00 L 378.25 0.11 C304.69,0.17 246.37,0.59 248.66,1.04 C250.94,1.49 254.54,2.76 256.66,3.86 C258.90,5.03 288.71,34.15 328.13,73.68 C390.36,136.08 398.50,143.80 399.40,152.28 C399.53,153.55 399.51,154.85 399.48,156.34 C399.46,156.90 399.45,157.47 399.45,158.09 C399.31,174.27 386.05,187.42 369.97,187.33 C369.56,187.33 369.15,187.33 368.77,187.33 C367.36,187.33 366.13,187.33 364.92,187.19 C356.49,186.21 348.86,178.29 285.65,115.21 C231.56,61.24 217.31,46.49 215.41,42.50 C212.33,36.06 212.09,24.60 214.89,18.43 C218.79,9.86 227.45,2.79 236.15,1.08 C238.67,0.58 189.98,0.17 120.25,0.11 L 0.00 0.00 L 0.10 119.75 C0.16,192.18 0.55,238.01 1.09,235.72 C3.10,227.18 9.70,218.99 17.50,215.35 C24.21,212.22 36.37,212.09 43.00,215.07 C46.45,216.62 63.05,232.62 114.32,283.80 C151.07,320.48 182.19,352.30 183.49,354.50 C190.44,366.28 187.72,382.90 177.34,392.01 C167.98,400.22 156.11,401.80 144.98,396.30 C139.16,393.42 131.69,386.27 71.80,326.30 C4.76,259.15 3.18,257.42 0.95,248.50 C0.54,246.85 0.16,301.25 0.10,369.40 L 0.00 493.30 L 2.25 489.99 C6.66,483.52 9.00,482.54 20.97,482.16 L 31.81 481.83 L 32.95 477.29 C37.74,458.26 53.18,439.54 71.50,430.53 C75.37,428.63 78.11,427.19 80.99,426.09 C90.62,422.40 101.74,422.57 161.60,422.26 C227.75,421.92 231.13,421.99 240.60,423.92 C267.41,429.38 288.27,448.22 296.58,474.48 L 298.80 481.50 L 309.70 482.00 C321.74,482.55 324.56,483.67 328.10,489.30 C329.64,491.75 330.02,493.74 329.72,497.79 C329.27,503.93 326.90,507.71 321.93,510.25 ZM 263.75 136.25 L 327.50 200.00 L 200.50 327.00 L 136.75 263.25 L 73.00 199.49 L 200.00 72.50 ZM 424.74 422.76 C407.55,439.94 393.27,453.98 392.99,453.95 C392.72,453.92 378.10,439.73 360.50,422.40 C342.90,405.08 320.48,383.17 310.68,373.72 L 292.87 356.54 L 285.18 356.52 C278.82,356.50 276.52,356.02 271.82,353.71 C265.65,350.68 261.28,346.33 257.77,339.72 C255.95,336.31 255.52,333.87 255.51,327.00 C255.50,319.52 255.84,317.88 258.33,313.39 C262.10,306.59 307.74,261.10 313.88,258.02 C316.62,256.65 320.93,255.63 325.38,255.31 C334.52,254.65 341.76,257.19 347.94,263.25 C354.20,269.38 356.38,274.79 356.50,284.50 L 356.60 292.50 L 406.30 341.37 C433.63,368.24 456.00,390.52 456.00,390.87 C456.00,391.22 441.93,405.57 424.74,422.76 ZM 480.20 510.07 L 474.50 511.89 L 512.00 512.00 L 511.86 493.25 C511.79,482.94 511.52,475.62 511.26,477.00 C510.21,482.61 504.84,492.28 499.83,497.58 C493.74,504.02 488.31,507.48 480.20,510.07 ZM 0.03 506.25 L 0.00 512.00 L 6.25 511.96 C12.30,511.92 12.41,511.88 9.50,510.59 C6.41,509.22 3.11,506.01 1.17,502.50 C0.25,500.85 0.06,501.50 0.03,506.25 Z" fill="rgb(0,0,0)"/>
<path d="M 261.73 8.30 C269.81,15.41 286.33,31.83 327.20,72.70 C377.87,123.37 393.00,138.26 397.51,146.65 C392.84,138.29 377.53,123.22 328.13,73.68 C297.16,42.63 272.13,18.00 261.73,8.30 ZM 17.66 271.55 C6.88,260.33 3.77,256.46 2.66,254.00 L 0.82 249.94 C0.86,248.82 0.91,248.32 0.95,248.50 C2.26,253.75 3.35,256.51 17.66,271.55 ZM 213.09 26.00 C212.57,31.70 213.36,38.21 215.41,42.50 C213.18,37.84 212.42,31.69 213.09,26.00 ZM 399.38 159.83 C399.26,163.58 398.72,165.84 397.21,169.12 C398.41,166.22 399.16,163.10 399.38,159.83 ZM 228.50 3.93 C229.77,3.20 231.06,2.58 232.36,2.08 L 235.36 0.93 C236.13,0.98 236.40,1.02 236.15,1.08 C233.55,1.59 230.96,2.57 228.50,3.93 ZM 249.61 0.91 L 253.01 2.31 C251.47,1.76 249.88,1.28 248.66,1.04 C248.44,1.00 248.77,0.96 249.61,0.91 ZM 0.96 235.28 L 2.08 232.36 C2.40,231.53 2.78,230.69 3.20,229.86 C2.28,231.76 1.56,233.73 1.09,235.72 C1.05,235.91 1.00,235.76 0.96,235.28 ZM 385.35 183.01 C380.83,185.84 375.57,187.36 369.97,187.33 C375.59,187.36 380.86,185.78 385.35,183.01 ZM 16.39 215.91 C16.75,215.71 17.11,215.53 17.46,215.37 C18.10,215.07 18.78,214.80 19.51,214.56 C18.80,214.80 18.13,215.06 17.50,215.35 C17.13,215.53 16.76,215.71 16.39,215.91 Z" fill="rgb(77,77,77)"/>
<path d="M 0.03 506.25 C0.06,501.50 0.25,500.85 1.17,502.50 C3.11,506.01 6.41,509.22 9.50,510.59 C12.41,511.88 12.30,511.92 6.25,511.96 L 0.00 512.00 L 0.03 506.25 ZM 321.93 510.25 C326.90,507.71 329.27,503.93 329.72,497.79 C330.02,493.74 329.64,491.75 328.10,489.30 C324.56,483.67 321.74,482.55 309.70,482.00 L 298.80 481.50 L 296.58 474.48 C288.27,448.22 267.41,429.38 240.60,423.92 C231.13,421.99 227.75,421.92 161.60,422.26 C83.88,422.67 88.33,422.26 71.50,430.53 C53.18,439.54 37.74,458.26 32.95,477.29 L 31.81 481.83 L 20.97 482.16 C9.00,482.54 6.66,483.52 2.25,489.99 L 0.00 493.30 L 0.08 370.90 L 0.16 248.50 L 2.66 254.00 C4.80,258.74 14.32,268.69 71.82,326.30 C131.71,386.29 139.16,393.42 144.98,396.30 C156.11,401.80 167.98,400.22 177.34,392.01 C187.72,382.90 190.44,366.28 183.49,354.50 C182.19,352.30 151.07,320.48 114.32,283.80 C63.05,232.62 46.45,216.62 43.00,215.07 C36.36,212.08 24.21,212.22 17.46,215.37 C11.26,218.25 4.73,225.47 2.08,232.36 L 0.10 237.50 L 0.05 118.75 L 0.00 0.00 L 118.75 0.05 L 237.50 0.10 L 232.36 2.08 C225.55,4.70 218.77,10.81 215.58,17.21 C212.02,24.37 211.94,35.23 215.41,42.50 C217.31,46.49 231.56,61.24 285.65,115.21 C360.43,189.83 357.42,187.26 369.97,187.33 C381.41,187.40 391.42,180.98 396.69,170.20 C398.92,165.64 399.44,163.24 399.40,157.54 C399.33,144.30 402.33,147.83 327.20,72.70 C264.13,9.63 259.04,4.79 253.48,2.50 L 247.50 0.05 L 379.75 0.02 L 512.00 0.00 L 511.93 229.25 C511.88,416.12 511.63,457.76 510.60,454.50 C507.90,446.01 503.77,440.01 491.49,426.75 C484.49,419.19 478.26,413.00 477.64,413.00 C477.02,413.00 462.47,427.03 445.32,444.18 L 414.12 475.37 L 422.31 484.38 C436.53,500.02 440.89,503.87 448.39,507.45 C452.30,509.32 456.62,511.04 458.00,511.28 C459.38,511.53 428.55,511.79 389.50,511.86 C321.31,511.99 318.64,511.93 321.93,510.25 ZM 424.74 422.76 C441.93,405.57 456.00,391.22 456.00,390.87 C456.00,390.52 433.63,368.24 406.30,341.37 L 356.60 292.50 L 356.50 284.50 C356.38,274.79 354.20,269.38 347.94,263.25 C341.76,257.19 334.52,254.65 325.38,255.31 C320.93,255.63 316.62,256.65 313.88,258.02 C307.74,261.10 262.10,306.59 258.33,313.39 C255.84,317.88 255.50,319.52 255.51,327.00 C255.52,333.87 255.95,336.31 257.77,339.72 C261.28,346.33 265.65,350.68 271.82,353.71 C276.52,356.02 278.82,356.50 285.18,356.52 L 292.87 356.54 L 310.68 373.72 C320.48,383.17 342.90,405.08 360.50,422.40 C378.10,439.73 392.72,453.92 392.99,453.95 C393.27,453.98 407.55,439.94 424.74,422.76 ZM 263.75 136.25 L 200.00 72.50 L 136.50 136.00 L 73.00 199.49 L 136.75 263.25 L 200.50 327.00 L 264.00 263.50 L 327.50 200.00 L 263.75 136.25 ZM 480.20 510.07 C488.31,507.48 493.74,504.02 499.83,497.58 C504.84,492.28 510.21,482.61 511.26,477.00 C511.52,475.62 511.79,482.94 511.86,493.25 L 512.00 512.00 L 493.25 511.95 L 474.50 511.89 L 480.20 510.07 Z" fill="none"/>
</g>
</svg>